<svg id="svg8" xmlns="http://www.w3.org/2000/svg" viewBox="0 0 188.54 99.51"><defs><style>.cls-1{fill:#fff;}</style></defs><title>logo_mc</title><g id="layer1"><g id="g819"><path id="path817" class="cls-1" d="M55.51,89.19l-5.4-.3c-.3,0-.9.6-.8.8.8,2.4,1.7,4.8,2.6,7.1h.5c1-2.4,2-4.9,3.1-7.6m51.4-42.3c0,1.2-.1,2.4,0,3.6,0,.5.6,1.3.8,1.2.8-.2,2.1.3,2.2-1.1.2-2.4.3-4.7.5-7.1.1-1.3-.7-1.4-1.7-1.4s-1.9.1-1.9,1.5c.1,1,.1,2.2.1,3.3m0-11.8c1.8-.1,3.3-.1,4.9-.3a1.15,1.15,0,0,0,.9-.6,29.28,29.28,0,0,0,1.9-4c.6-1.7.1-2.8-1.7-3.1a40.48,40.48,0,0,0-5-.4c-.3,0-1,.5-1,.8v7.6m-.1,29.8h0v5.2c0,1,.4,1.4,1.4,1.4h4.5c1.1,0,1.5-.3,1.1-1.5a39.43,39.43,0,0,1-1.4-4.9c-.5-1.8-.8-3.7-1.3-5.5-.4-1.4-1-1.6-3.1-1.4-1.2.1-1.2,1-1.2,1.8.1,1.7,0,3.3,0,4.9M66.71,9c.4,0,.7.1.9.1,4.2-.1,8.3-.1,12.5-.3,4-.1,8-.4,12.1-.6.8,0,1.5-.3,1.5-1.3s-.7-1-1.5-1.1c-2.2-.1-4.5-.3-6.7-.3-5.2,0-10.3.1-15.5.1-2.6.2-3.1.5-3.3,3.4m46.1,11.8h0c1.5-.1,3-.1,4.5-.1,2,0,3.6-.4,4.9-2.1,1-1.2,2.3-2.2,3.3-3.4.7-.7.5-1.4-.5-1.7a13.59,13.59,0,0,0-3.5-.7c-4.6,0-9.1.2-13.7.3-.4,0-1,.8-1.1,1.2-.1,1.6,0,3.3-.1,4.9,0,1.1.5,1.5,1.5,1.5,1.8.1,3.3.1,4.7.1m-31,69.5v-.2c-2,0-4.1-.1-6.1,0-.4,0-1.1.6-1.1.9a16.15,16.15,0,0,0,.2,3.1,1.22,1.22,0,0,0,1.4,1.2l26.7-.3a1.88,1.88,0,0,0,1.1-.5,2.46,2.46,0,0,0-2.2-3.4c-6.7-.3-13.4-.5-20-.8m44.3-4.5c-2.1-2.5-4.1-4.9-6-7.3a4.45,4.45,0,0,0-3.5-1.9c-2.9,0-5.9,0-8.8.1-.3,0-.8.8-.8,1.2-.1,2.4,0,4.8-.1,7.2,0,1.3.5,1.7,1.8,1.7,4.4-.3,8.7-.4,13.1-.6,1.3-.2,2.8-.3,4.3-.4m-82.4-11.7c.1.4,0,.7.1.9,1.4,4,2.8,7.9,4.3,11.9a2,2,0,0,0,1.5.8c1.7.1,3.4,0,5.1.1a1.86,1.86,0,0,0,2-1.4c1.3-3.4,2.7-6.8,4.1-10.2.4-1.1.2-1.5-1-1.6-3.5-.1-6.9-.3-10.4-.5-1.9-.1-3.7,0-5.7,0m17.7-51.3c5.7-.3,11.1-.6,16.4-.8l15.8-.6c1.2,0,1.7-.5,1.6-1.7-.3-2.1-.4-4.1-.7-6.2a1.48,1.48,0,0,0-1.7-1.5h-4.2l-21.5-.6c-1.1,0-1.8.3-2.1,1.4-.8,2-1.6,4.1-2.4,6.1-.4,1.2-.7,2.4-1.2,3.9m27.2,64.5v-.5h13.1c1.1,0,1.5-.4,1.3-1.5q-.6-3.75-.9-7.5c-.1-1.4-.7-1.8-2-1.9l-18-.6-7.7-.3c-1,0-1.5.2-1.4,1.4.4,3.1.8,6.1,1,9.2.1,1.5.8,1.9,2.1,1.8,4.2-.2,8.3-.1,12.5-.1M87,72.19v-.7h12.8c1.1,0,1.5-.4,1.3-1.5-.5-3.7-.9-7.4-1.3-11.1-.2-1.5-.8-1.9-2.3-2-8.2-.2-16.5-.5-24.7-.8-1.6-.1-1.9.2-1.7,1.9l1.2,12c.2,1.9.3,2,2.3,2,4.2.2,8.3.2,12.4.2m-47.3-17h-1c-2.2,0-2.3,0-1.5,2.1,1.8,4.9,3.6,9.9,5.4,14.8a1.45,1.45,0,0,0,1.8,1.1,29.54,29.54,0,0,1,4.2-.2c3.9-.1,7.8-.2,11.8-.4.7,0,1.9-.4,2.1-1,2-4.7,3.9-9.5,5.8-14.2.4-.9.1-1.4-.9-1.4-9.3-.2-18.5-.5-27.7-.8m38.5-29.9V25H62.11a2,2,0,0,0-2.2,1.5c-1.2,3.2-2.4,6.4-3.7,9.6-.6,1.6-.3,2.1,1.4,2,9-.5,17.9-1,26.9-1.4l11.3-.6c1,0,1.4-.3,1.2-1.4-.3-2.3-.6-4.5-.8-6.8-.1-1.3-.6-1.9-2-1.9-5.3-.2-10.6-.5-16-.7m100.3,42.1c0,.4.1.7.1.9-.2,2-.5,4-.7,6.1-.7,5.9-1.4,11.7-2,17.6a1.88,1.88,0,0,1-1.8,1.9c-1.9.3-3.8.7-5.7.9-8.7.9-17.2.8-25.7-1.6A36.49,36.49,0,0,0,134,92c-4.7-.2-9.4,0-14.2-.1-3.8,0-7.6-.2-11.3-.3-1.1,0-1.6.4-1.6,1.6v3.9c0,2.5,0,2.5,2.4,2.5H186c2.6,0,2.6,0,2.6-2.5V2.39c0-2.3,0-2.3-2.3-2.3h-72.1c-1.8,0-3.7.1-5.5,0-1.4-.1-1.9.5-1.8,1.8s0,2.7,0,4c0,2,0,2,2.1,2,10.4-.4,20.9-.7,31.3-1.1a19.19,19.19,0,0,0,4.8-.7c9-3,18.1-2.8,27.2-1a2.43,2.43,0,0,1,2.3,2.5c.8,6.2,1.7,12.3,2.6,18.4.3,2.2.6,4.4.9,6.8a17.86,17.86,0,0,1-1.9-.9,33.2,33.2,0,0,0-14.5-3.4c-16.7-.1-26.9,15.9-19.4,30.5,4.3,8.3,12.6,12.9,21.8,11.6,3.6-.5,7.2-1.5,10.8-2.3,1.2-.3,2.3-.6,3.6-.9M53.21,38c-1.6-4.4-3-8.2-4.3-12a2.08,2.08,0,0,0-2.3-1.6c-1,.1-2.1,0-3.1,0l-5.2-.3a52.53,52.53,0,0,1,7.9-.6c1.3,0,1.6-.5,1.2-1.6-1.2-3.4-2.4-6.8-3.7-10.1a2.25,2.25,0,0,0-1.6-1c-1.2-.1-2.4,0-3.5,0v-.3c1.4-.1,2.9-.3,4.5-.4-.2-.7-.3-1.1-.4-1.6-.9-2.5-.9-2.5-3.6-2.5h-20c-4.6,0-3.8-.8-4.6,3.9C11.61,26.39,8.81,43,6,59.49,4.11,70.69,2.11,81.79.21,93c-.3,2-.3,2,1.7,2h26.4c2.2,0,2.2-.1,2.5-2.2.3-3.3.7-6.6,1-9.9,1-9.3,1.9-18.7,2.9-28,.1-.7.3-1.4.4-2,.6,1.7,1.7,2,3.2,1.9l29.2-1.2c1.2,0,2.4.1,2.7-.9.8.3,1.4.9,2.1.8l16.4-.6,8.9-.3c.8,0,1.5-.1,1.4-1.2-.4-3.1-.8-6.1-1.1-9.2-.1-1-.7-1.3-1.6-1.3l-39.2-1.2a14.68,14.68,0,0,0-2.9.5,8.51,8.51,0,0,0-1.7-.6l-9.2-.3-5.4-.3v-.2c4.9-.2,9.9-.5,15.3-.8" transform="translate(-0.07 -0.08)"/></g></g></svg>