<svg xmlns="http://www.w3.org/2000/svg" xmlns:xlink="http://www.w3.org/1999/xlink" viewBox="0 0 1045.79 1138.82"><defs><style>.cls-1{isolation:isolate;}.cls-2{fill:#a978e6;}.cls-2,.cls-5,.cls-6,.cls-7,.cls-8,.cls-9{stroke:#232323;stroke-miterlimit:10;}.cls-3{fill:url(#Áåçûìÿííûé_ãðàäèåíò_21);}.cls-4{fill:url(#Áåçûìÿííûé_ãðàäèåíò_21-2);}.cls-5{fill:#c7a6ef;}.cls-6{fill:#9558e0;}.cls-7{fill:#dcc8f5;}.cls-8{fill:#ebdff9;}.cls-9{fill:#ac7de7;}.cls-10{fill:url(#Áåçûìÿííûé_ãðàäèåíò_74);}.cls-11{fill:url(#Áåçûìÿííûé_ãðàäèåíò_74-2);}.cls-12{fill:url(#Áåçûìÿííûé_ãðàäèåíò_21-3);}.cls-13{fill:url(#Áåçûìÿííûé_ãðàäèåíò_21-4);}.cls-14{fill:url(#Áåçûìÿííûé_ãðàäèåíò_21-5);}.cls-15{fill:url(#Áåçûìÿííûé_ãðàäèåíò_74-3);}.cls-16{fill:url(#Áåçûìÿííûé_ãðàäèåíò_32);}.cls-17{fill:url(#Áåçûìÿííûé_ãðàäèåíò_21-6);}.cls-18{fill:url(#Áåçûìÿííûé_ãðàäèåíò_108);}.cls-19{fill:url(#Áåçûìÿííûé_ãðàäèåíò_60);}.cls-20{fill:url(#Áåçûìÿííûé_ãðàäèåíò_32-2);}.cls-21{fill:url(#Áåçûìÿííûé_ãðàäèåíò_24);}.cls-22{fill:url(#Áåçûìÿííûé_ãðàäèåíò_21-7);}.cls-23{fill:url(#Áåçûìÿííûé_ãðàäèåíò_32-3);}.cls-24{fill:url(#Áåçûìÿííûé_ãðàäèåíò_21-8);}.cls-25,.cls-26{fill:#00f4ca;}.cls-26{opacity:0.5;}.cls-27{fill:url(#Áåçûìÿííûé_ãðàäèåíò_108-2);}.cls-28{fill:url(#Áåçûìÿííûé_ãðàäèåíò_60-2);}.cls-29{fill:url(#Áåçûìÿííûé_ãðàäèåíò_108-3);}.cls-30{fill:url(#Áåçûìÿííûé_ãðàäèåíò_108-4);}.cls-31{fill:url(#Áåçûìÿííûé_ãðàäèåíò_60-3);}.cls-32{fill:url(#Áåçûìÿííûé_ãðàäèåíò_60-4);}.cls-33{fill:url(#Áåçûìÿííûé_ãðàäèåíò_60-5);}.cls-34{fill:url(#Áåçûìÿííûé_ãðàäèåíò_60-6);}.cls-35{fill:url(#Áåçûìÿííûé_ãðàäèåíò_60-7);}.cls-36{fill:url(#Áåçûìÿííûé_ãðàäèåíò_38);}.cls-37{fill:url(#Áåçûìÿííûé_ãðàäèåíò_46);}.cls-38{fill:url(#Áåçûìÿííûé_ãðàäèåíò_68);}.cls-39{fill:url(#Áåçûìÿííûé_ãðàäèåíò_38-2);}.cls-40{fill:url(#Áåçûìÿííûé_ãðàäèåíò_46-2);}.cls-41{fill:url(#Áåçûìÿííûé_ãðàäèåíò_21-9);}.cls-42{fill:url(#Áåçûìÿííûé_ãðàäèåíò_32-4);}.cls-43{fill:url(#Áåçûìÿííûé_ãðàäèåíò_46-3);}.cls-44{fill:url(#Áåçûìÿííûé_ãðàäèåíò_46-4);}.cls-45{fill:url(#Áåçûìÿííûé_ãðàäèåíò_74-4);}.cls-46{fill:url(#Áåçûìÿííûé_ãðàäèåíò_60-8);}.cls-47{fill:url(#Áåçûìÿííûé_ãðàäèåíò_60-9);}.cls-48{fill:url(#Áåçûìÿííûé_ãðàäèåíò_60-10);}.cls-49{fill:url(#Áåçûìÿííûé_ãðàäèåíò_97);}.cls-50{fill:url(#Áåçûìÿííûé_ãðàäèåíò_81);}.cls-51{fill:url(#Áåçûìÿííûé_ãðàäèåíò_21-10);}.cls-52{fill:url(#Áåçûìÿííûé_ãðàäèåíò_87);}.cls-53{fill:url(#Áåçûìÿííûé_ãðàäèåíò_74-5);}.cls-54{fill:url(#Áåçûìÿííûé_ãðàäèåíò_81-2);}.cls-55{fill:url(#Áåçûìÿííûé_ãðàäèåíò_32-5);}.cls-56{fill:url(#Áåçûìÿííûé_ãðàäèåíò_74-6);}.cls-57{fill:url(#Áåçûìÿííûé_ãðàäèåíò_91);}.cls-58{fill:url(#Áåçûìÿííûé_ãðàäèåíò_87-2);}.cls-59{fill:url(#Áåçûìÿííûé_ãðàäèåíò_91-2);}.cls-60{fill:url(#Áåçûìÿííûé_ãðàäèåíò_91-3);}.cls-61{fill:url(#Áåçûìÿííûé_ãðàäèåíò_87-3);}.cls-62{fill:url(#Áåçûìÿííûé_ãðàäèåíò_87-4);}.cls-63{fill:url(#Áåçûìÿííûé_ãðàäèåíò_87-5);}.cls-64{fill:url(#Áåçûìÿííûé_ãðàäèåíò_133);}.cls-65{fill:url(#Áåçûìÿííûé_ãðàäèåíò_133-2);}.cls-66{fill:url(#Áåçûìÿííûé_ãðàäèåíò_133-3);}.cls-67{fill:url(#Áåçûìÿííûé_ãðàäèåíò_97-2);}.cls-68{fill:url(#Áåçûìÿííûé_ãðàäèåíò_97-3);}.cls-69{fill:url(#Áåçûìÿííûé_ãðàäèåíò_121);}.cls-70{fill:url(#Áåçûìÿííûé_ãðàäèåíò_121-2);}.cls-71{fill:url(#Áåçûìÿííûé_ãðàäèåíò_121-3);}.cls-72{fill:url(#Áåçûìÿííûé_ãðàäèåíò_87-6);}.cls-73{fill:url(#Áåçûìÿííûé_ãðàäèåíò_97-4);}.cls-74{fill:url(#Áåçûìÿííûé_ãðàäèåíò_87-7);}.cls-75{fill:url(#Áåçûìÿííûé_ãðàäèåíò_87-8);}.cls-76{fill:url(#Áåçûìÿííûé_ãðàäèåíò_97-5);}.cls-77{fill:url(#Áåçûìÿííûé_ãðàäèåíò_87-9);}.cls-78{fill:url(#Áåçûìÿííûé_ãðàäèåíò_97-6);}.cls-79{fill:url(#Áåçûìÿííûé_ãðàäèåíò_103);}.cls-80{fill:url(#Áåçûìÿííûé_ãðàäèåíò_74-7);}.cls-81{fill:url(#Áåçûìÿííûé_ãðàäèåíò_68-2);}.cls-82{fill:url(#Áåçûìÿííûé_ãðàäèåíò_60-11);}.cls-83{fill:url(#Áåçûìÿííûé_ãðàäèåíò_74-8);}.cls-84{fill:url(#Áåçûìÿííûé_ãðàäèåíò_108-5);}.cls-85{fill:url(#Áåçûìÿííûé_ãðàäèåíò_60-12);}.cls-86{fill:url(#Áåçûìÿííûé_ãðàäèåíò_103-2);}.cls-87{fill:url(#Áåçûìÿííûé_ãðàäèåíò_103-3);}.cls-88{fill:url(#Áåçûìÿííûé_ãðàäèåíò_103-4);}.cls-89{fill:url(#Áåçûìÿííûé_ãðàäèåíò_103-5);}.cls-90{fill:url(#Áåçûìÿííûé_ãðàäèåíò_103-6);}.cls-91{fill:url(#Áåçûìÿííûé_ãðàäèåíò_68-3);}.cls-92{fill:url(#Áåçûìÿííûé_ãðàäèåíò_68-4);}.cls-93{fill:url(#Áåçûìÿííûé_ãðàäèåíò_81-3);}.cls-94{fill:url(#Áåçûìÿííûé_ãðàäèåíò_68-5);}.cls-95{fill:url(#Áåçûìÿííûé_ãðàäèåíò_32-6);}.cls-96{fill:url(#Áåçûìÿííûé_ãðàäèåíò_87-10);}.cls-97{fill:url(#Áåçûìÿííûé_ãðàäèåíò_97-7);}.cls-98{fill:url(#Áåçûìÿííûé_ãðàäèåíò_87-11);}.cls-99{fill:url(#Áåçûìÿííûé_ãðàäèåíò_60-13);}.cls-100{fill:url(#Áåçûìÿííûé_ãðàäèåíò_108-6);}.cls-101{fill:url(#Áåçûìÿííûé_ãðàäèåíò_81-4);}.cls-102{fill:url(#Áåçûìÿííûé_ãðàäèåíò_32-7);}.cls-103{fill:url(#Áåçûìÿííûé_ãðàäèåíò_21-11);}.cls-104{fill:url(#Áåçûìÿííûé_ãðàäèåíò_21-12);}.cls-105{fill:url(#Áåçûìÿííûé_ãðàäèåíò_81-5);}.cls-106{fill:url(#Áåçûìÿííûé_ãðàäèåíò_21-13);}.cls-107{fill:url(#Áåçûìÿííûé_ãðàäèåíò_68-6);}.cls-108{fill:url(#Áåçûìÿííûé_ãðàäèåíò_81-6);}.cls-109{fill:url(#Áåçûìÿííûé_ãðàäèåíò_108-7);}.cls-110{fill:url(#Áåçûìÿííûé_ãðàäèåíò_108-8);}.cls-111{fill:url(#Áåçûìÿííûé_ãðàäèåíò_60-14);}.cls-112{fill:url(#Áåçûìÿííûé_ãðàäèåíò_60-15);}.cls-113,.cls-114,.cls-115,.cls-116,.cls-117,.cls-118,.cls-119,.cls-120,.cls-122,.cls-123,.cls-124,.cls-125{opacity:0.2;}.cls-113{fill:url(#Áåçûìÿííûé_ãðàäèåíò_32-8);}.cls-114{fill:url(#Áåçûìÿííûé_ãðàäèåíò_32-9);}.cls-115{fill:url(#Áåçûìÿííûé_ãðàäèåíò_32-10);}.cls-116{fill:url(#Áåçûìÿííûé_ãðàäèåíò_32-11);}.cls-117{fill:url(#Áåçûìÿííûé_ãðàäèåíò_32-12);}.cls-118{fill:url(#Áåçûìÿííûé_ãðàäèåíò_32-13);}.cls-119{fill:url(#Áåçûìÿííûé_ãðàäèåíò_32-14);}.cls-120{fill:url(#Áåçûìÿííûé_ãðàäèåíò_32-15);}.cls-121{fill:url(#Áåçûìÿííûé_ãðàäèåíò_32-16);}.cls-122{fill:url(#Áåçûìÿííûé_ãðàäèåíò_32-17);}.cls-123{fill:url(#Áåçûìÿííûé_ãðàäèåíò_32-18);}.cls-124{fill:url(#Áåçûìÿííûé_ãðàäèåíò_32-19);}.cls-125{fill:url(#Áåçûìÿííûé_ãðàäèåíò_32-20);}.cls-126{fill:url(#Áåçûìÿííûé_ãðàäèåíò_32-21);}.cls-127{fill:url(#Áåçûìÿííûé_ãðàäèåíò_271);}.cls-128{fill:url(#Áåçûìÿííûé_ãðàäèåíò_108-9);}.cls-129{fill:url(#Áåçûìÿííûé_ãðàäèåíò_108-10);}.cls-130{fill:#8e0092;mix-blend-mode:multiply;}.cls-131{fill:url(#Áåçûìÿííûé_ãðàäèåíò_21-14);}.cls-132{fill:url(#Áåçûìÿííûé_ãðàäèåíò_74-9);}.cls-133{fill:url(#Áåçûìÿííûé_ãðàäèåíò_32-22);}.cls-134{fill:url(#Áåçûìÿííûé_ãðàäèåíò_68-7);}.cls-135{fill:url(#Áåçûìÿííûé_ãðàäèåíò_21-15);}.cls-136{fill:url(#Áåçûìÿííûé_ãðàäèåíò_32-23);}.cls-137{fill:url(#Áåçûìÿííûé_ãðàäèåíò_74-10);}.cls-138{fill:url(#Áåçûìÿííûé_ãðàäèåíò_68-8);}.cls-139{fill:url(#Áåçûìÿííûé_ãðàäèåíò_97-8);}.cls-140{fill:url(#Áåçûìÿííûé_ãðàäèåíò_87-12);}.cls-141{fill:url(#Áåçûìÿííûé_ãðàäèåíò_68-9);}.cls-142{fill:url(#Áåçûìÿííûé_ãðàäèåíò_81-7);}.cls-143{fill:url(#Áåçûìÿííûé_ãðàäèåíò_21-16);}.cls-144{fill:url(#Áåçûìÿííûé_ãðàäèåíò_32-24);}.cls-145{fill:url(#Áåçûìÿííûé_ãðàäèåíò_68-10);}.cls-146{fill:url(#Áåçûìÿííûé_ãðàäèåíò_74-11);}.cls-147{fill:url(#Áåçûìÿííûé_ãðàäèåíò_97-9);}.cls-148{fill:url(#Áåçûìÿííûé_ãðàäèåíò_87-13);}.cls-149{fill:url(#Áåçûìÿííûé_ãðàäèåíò_87-14);}.cls-150{fill:url(#Áåçûìÿííûé_ãðàäèåíò_97-10);}.cls-151{fill:url(#Áåçûìÿííûé_ãðàäèåíò_32-25);}.cls-152{fill:url(#Áåçûìÿííûé_ãðàäèåíò_32-26);}.cls-153{fill:url(#Áåçûìÿííûé_ãðàäèåíò_32-27);}.cls-154{fill:url(#Áåçûìÿííûé_ãðàäèåíò_108-11);}.cls-155{fill:url(#Áåçûìÿííûé_ãðàäèåíò_137);}.cls-156{fill:url(#Áåçûìÿííûé_ãðàäèåíò_60-16);}.cls-157{fill:url(#Áåçûìÿííûé_ãðàäèåíò_134);}.cls-158{fill:url(#Áåçûìÿííûé_ãðàäèåíò_134-2);}.cls-159{fill:url(#Áåçûìÿííûé_ãðàäèåíò_134-3);}.cls-160{fill:url(#Áåçûìÿííûé_ãðàäèåíò_134-4);}.cls-161{fill:url(#Áåçûìÿííûé_ãðàäèåíò_170);}.cls-162{fill:url(#Áåçûìÿííûé_ãðàäèåíò_157);}.cls-163{fill:url(#Áåçûìÿííûé_ãðàäèåíò_87-15);}.cls-164{fill:url(#Áåçûìÿííûé_ãðàäèåíò_97-11);}.cls-165{fill:url(#Áåçûìÿííûé_ãðàäèåíò_157-2);}.cls-166{fill:url(#Áåçûìÿííûé_ãðàäèåíò_151);}.cls-167{fill:url(#Áåçûìÿííûé_ãðàäèåíò_97-12);}.cls-168{fill:url(#Áåçûìÿííûé_ãðàäèåíò_81-8);}.cls-169{fill:url(#Áåçûìÿííûé_ãðàäèåíò_21-17);}.cls-170{fill:url(#Áåçûìÿííûé_ãðàäèåíò_87-16);}.cls-171{fill:url(#Áåçûìÿííûé_ãðàäèåíò_170-2);}.cls-172{fill:url(#Áåçûìÿííûé_ãðàäèåíò_157-3);}.cls-173{fill:url(#Áåçûìÿííûé_ãðàäèåíò_157-4);}.cls-174{fill:url(#Áåçûìÿííûé_ãðàäèåíò_151-2);}.cls-175{fill:url(#Áåçûìÿííûé_ãðàäèåíò_157-5);}.cls-176{fill:url(#Áåçûìÿííûé_ãðàäèåíò_87-17);}.cls-177{fill:url(#Áåçûìÿííûé_ãðàäèåíò_87-18);}.cls-178{fill:url(#Áåçûìÿííûé_ãðàäèåíò_157-6);}</style><linearGradient id="Áåçûìÿííûé_ãðàäèåíò_21" x1="568.7" y1="521.53" x2="921.23" y2="521.53" gradientUnits="userSpaceOnUse"><stop offset="0" stop-color="#5c00b5"/><stop offset="1" stop-color="#6b0074"/></linearGradient><linearGradient id="Áåçûìÿííûé_ãðàäèåíò_21-2" x1="512.26" y1="330.53" x2="593.62" y2="330.53" xlink:href="#Áåçûìÿííûé_ãðàäèåíò_21"/><linearGradient id="Áåçûìÿííûé_ãðàäèåíò_74" x1="410.49" y1="663.66" x2="529.12" y2="663.66" gradientUnits="userSpaceOnUse"><stop offset="0" stop-color="#344ab5"/><stop offset="1" stop-color="#7900a2"/></linearGradient><linearGradient id="Áåçûìÿííûé_ãðàäèåíò_74-2" x1="568.7" y1="277.42" x2="631.72" y2="277.42" xlink:href="#Áåçûìÿííûé_ãðàäèåíò_74"/><linearGradient id="Áåçûìÿííûé_ãðàäèåíò_21-3" x1="211.39" y1="505.43" x2="484.06" y2="505.43" xlink:href="#Áåçûìÿííûé_ãðàäèåíò_21"/><linearGradient id="Áåçûìÿííûé_ãðàäèåíò_21-4" x1="102.92" y1="521.53" x2="455.82" y2="521.53" xlink:href="#Áåçûìÿííûé_ãðàäèåíò_21"/><linearGradient id="Áåçûìÿííûé_ãðàäèåíò_21-5" x1="430.54" y1="330.53" x2="512.26" y2="330.53" xlink:href="#Áåçûìÿííûé_ãðàäèåíò_21"/><linearGradient id="Áåçûìÿííûé_ãðàäèåíò_74-3" x1="392.43" y1="277.42" x2="455.45" y2="277.42" xlink:href="#Áåçûìÿííûé_ãðàäèåíò_74"/><linearGradient id="Áåçûìÿííûé_ãðàäèåíò_32" x1="554.07" y1="655.73" x2="554.07" y2="550.19" gradientUnits="userSpaceOnUse"><stop offset="0" stop-color="#5d0084"/><stop offset="1" stop-color="#1b0033"/></linearGradient><linearGradient id="Áåçûìÿííûé_ãðàäèåíò_21-6" x1="561.91" y1="648.96" x2="561.91" y2="550.19" xlink:href="#Áåçûìÿííûé_ãðàäèåíò_21"/><linearGradient id="Áåçûìÿííûé_ãðàäèåíò_108" x1="558.56" y1="644.88" x2="565.26" y2="644.88" gradientUnits="userSpaceOnUse"><stop offset="0" stop-color="#51c4fe"/><stop offset="1" stop-color="#00f9ff"/></linearGradient><linearGradient id="Áåçûìÿííûé_ãðàäèåíò_60" x1="549.57" y1="648.26" x2="558.56" y2="648.26" gradientUnits="userSpaceOnUse"><stop offset="0" stop-color="#517cfe"/><stop offset="1" stop-color="#65a9ff"/></linearGradient><linearGradient id="Áåçûìÿííûé_ãðàäèåíò_32-2" x1="546.2" y1="1122.29" x2="546.2" y2="703.21" xlink:href="#Áåçûìÿííûé_ãðàäèåíò_32"/><linearGradient id="Áåçûìÿííûé_ãðàäèåíò_24" x1="564.52" y1="808.52" x2="564.52" y2="703.21" gradientUnits="userSpaceOnUse"><stop offset="0" stop-color="#7e0090"/><stop offset="1" stop-color="#8b00bf"/></linearGradient><linearGradient id="Áåçûìÿííûé_ãðàäèåíò_21-7" x1="592.02" y1="1122.29" x2="592.02" y2="808.52" xlink:href="#Áåçûìÿííûé_ãðàäèåíò_21"/><linearGradient id="Áåçûìÿííûé_ãðàäèåíò_32-3" x1="551.29" y1="787.92" x2="551.29" y2="648.5" xlink:href="#Áåçûìÿííûé_ãðàäèåíò_32"/><linearGradient id="Áåçûìÿííûé_ãðàäèåíò_21-8" x1="570.94" y1="787.92" x2="570.94" y2="647.59" xlink:href="#Áåçûìÿííûé_ãðàäèåíò_21"/><linearGradient id="Áåçûìÿííûé_ãðàäèåíò_108-2" x1="562.14" y1="766.86" x2="588.13" y2="766.86" xlink:href="#Áåçûìÿííûé_ãðàäèåíò_108"/><linearGradient id="Áåçûìÿííûé_ãðàäèåíò_60-2" x1="536.51" y1="738.6" x2="566.06" y2="738.6" xlink:href="#Áåçûìÿííûé_ãðàäèåíò_60"/><linearGradient id="Áåçûìÿííûé_ãðàäèåíò_108-3" x1="558.43" y1="566.64" x2="562.6" y2="566.64" xlink:href="#Áåçûìÿííûé_ãðàäèåíò_108"/><linearGradient id="Áåçûìÿííûé_ãðàäèåíò_108-4" x1="558.56" y1="578.72" x2="562.92" y2="578.72" xlink:href="#Áåçûìÿííûé_ãðàäèåíò_108"/><linearGradient id="Áåçûìÿííûé_ãðàäèåíò_60-3" x1="553.82" y1="568.68" x2="558.56" y2="568.68" xlink:href="#Áåçûìÿííûé_ãðàäèåíò_60"/><linearGradient id="Áåçûìÿííûé_ãðàäèåíò_60-4" x1="553.31" y1="580.91" x2="558.56" y2="580.91" xlink:href="#Áåçûìÿííûé_ãðàäèåíò_60"/><linearGradient id="Áåçûìÿííûé_ãðàäèåíò_60-5" x1="480.28" y1="852.54" x2="543.54" y2="852.54" xlink:href="#Áåçûìÿííûé_ãðàäèåíò_60"/><linearGradient id="Áåçûìÿííûé_ãðàäèåíò_60-6" x1="457.93" y1="854.88" x2="482.87" y2="854.88" xlink:href="#Áåçûìÿííûé_ãðàäèåíò_60"/><linearGradient id="Áåçûìÿííûé_ãðàäèåíò_60-7" x1="475.1" y1="842.47" x2="551.29" y2="842.47" xlink:href="#Áåçûìÿííûé_ãðàäèåíò_60"/><linearGradient id="Áåçûìÿííûé_ãðàäèåíò_38" x1="513.19" y1="842.47" x2="513.19" y2="787.92" gradientUnits="userSpaceOnUse"><stop offset="0" stop-color="#344ab5"/><stop offset="1" stop-color="#6b0074"/></linearGradient><linearGradient id="Áåçûìÿííûé_ãðàäèåíò_46" x1="465.09" y1="845.33" x2="465.09" y2="787.92" gradientUnits="userSpaceOnUse"><stop offset="0" stop-color="#3b22b6"/><stop offset="1" stop-color="#1b0033"/></linearGradient><linearGradient id="Áåçûìÿííûé_ãðàäèåíò_68" x1="453.07" y1="845.33" x2="482.87" y2="845.33" gradientUnits="userSpaceOnUse"><stop offset="0" stop-color="#5152fe"/><stop offset="1" stop-color="#3b6fbb"/></linearGradient><linearGradient id="Áåçûìÿííûé_ãðàäèåíò_38-2" x1="515.78" y1="1130.35" x2="515.78" y2="854.3" xlink:href="#Áåçûìÿííûé_ãðàäèåíò_38"/><linearGradient id="Áåçûìÿííûé_ãðàäèåíò_46-2" x1="453.07" y1="1130.35" x2="453.07" y2="854.3" xlink:href="#Áåçûìÿííûé_ãðàäèåíò_46"/><linearGradient id="Áåçûìÿííûé_ãðàäèåíò_21-9" x1="509.33" y1="794.03" x2="509.33" y2="684.67" xlink:href="#Áåçûìÿííûé_ãðàäèåíò_21"/><linearGradient id="Áåçûìÿííûé_ãðàäèåíò_32-4" x1="506.77" y1="793.63" x2="506.77" y2="685.82" xlink:href="#Áåçûìÿííûé_ãðàäèåíò_32"/><linearGradient id="Áåçûìÿííûé_ãðàäèåíò_46-3" x1="501.63" y1="1130.35" x2="501.63" y2="854.3" xlink:href="#Áåçûìÿííûé_ãðàäèåíò_46"/><linearGradient id="Áåçûìÿííûé_ãðàäèåíò_46-4" x1="545.18" y1="1130.35" x2="545.18" y2="876.74" xlink:href="#Áåçûìÿííûé_ãðàäèåíò_46"/><linearGradient id="Áåçûìÿííûé_ãðàäèåíò_74-4" x1="512.6" y1="1130.35" x2="512.6" y2="854.3" xlink:href="#Áåçûìÿííûé_ãðàäèåíò_74"/><linearGradient id="Áåçûìÿííûé_ãðàäèåíò_60-8" x1="457.19" y1="821.98" x2="548.92" y2="821.98" xlink:href="#Áåçûìÿííûé_ãðàäèåíò_60"/><linearGradient id="Áåçûìÿííûé_ãðàäèåíò_60-9" x1="506.01" y1="1013.6" x2="544.02" y2="1013.6" xlink:href="#Áåçûìÿííûé_ãðàäèåíò_60"/><linearGradient id="Áåçûìÿííûé_ãðàäèåíò_60-10" x1="522.93" y1="1100.32" x2="540.11" y2="1100.32" xlink:href="#Áåçûìÿííûé_ãðàäèåíò_60"/><linearGradient id="Áåçûìÿííûé_ãðàäèåíò_97" x1="586.72" y1="729.23" x2="586.72" y2="706.66" gradientTransform="translate(-44.39 80.44) rotate(-7.43)" gradientUnits="userSpaceOnUse"><stop offset="0" stop-color="#517cfe"/><stop offset="1" stop-color="#00a797"/></linearGradient><linearGradient id="Áåçûìÿííûé_ãðàäèåíò_81" x1="642.1" y1="705.61" x2="628.24" y2="599.25" gradientUnits="userSpaceOnUse"><stop offset="0" stop-color="#2e0066"/><stop offset="1" stop-color="#1b0033"/></linearGradient><linearGradient id="Áåçûìÿííûé_ãðàäèåíò_21-10" x1="637.71" y1="706.81" x2="637.71" y2="598.55" xlink:href="#Áåçûìÿííûé_ãðàäèåíò_21"/><linearGradient id="Áåçûìÿííûé_ãðàäèåíò_87" x1="595.18" y1="731.82" x2="595.18" y2="706.66" gradientTransform="translate(-44.39 80.44) rotate(-7.43)" gradientUnits="userSpaceOnUse"><stop offset="0" stop-color="#517cfe"/><stop offset="1" stop-color="#65eca9"/></linearGradient><linearGradient id="Áåçûìÿííûé_ãðàäèåíò_74-5" x1="644.59" y1="765.37" x2="644.59" y2="721.6" xlink:href="#Áåçûìÿííûé_ãðàäèåíò_74"/><linearGradient id="Áåçûìÿííûé_ãðàäèåíò_81-2" x1="622.83" y1="772.07" x2="622.83" y2="721.6" xlink:href="#Áåçûìÿííûé_ãðàäèåíò_81"/><linearGradient id="Áåçûìÿííûé_ãðàäèåíò_32-5" x1="619.73" y1="1128.48" x2="619.73" y2="762.06" xlink:href="#Áåçûìÿííûé_ãðàäèåíò_32"/><linearGradient id="Áåçûìÿííûé_ãðàäèåíò_74-6" x1="655.15" y1="1128.48" x2="655.15" y2="762.06" xlink:href="#Áåçûìÿííûé_ãðàäèåíò_74"/><linearGradient id="Áåçûìÿííûé_ãðàäèåíò_91" x1="665.31" y1="1128.48" x2="665.31" y2="765.37" gradientUnits="userSpaceOnUse"><stop offset="0" stop-color="#5d0084"/><stop offset="1" stop-color="#480057"/></linearGradient><linearGradient id="Áåçûìÿííûé_ãðàäèåíò_87-2" x1="662.88" y1="1128.48" x2="662.88" y2="765.21" gradientTransform="matrix(1, 0, 0, 1, 0, 0)" xlink:href="#Áåçûìÿííûé_ãðàäèåíò_87"/><linearGradient id="Áåçûìÿííûé_ãðàäèåíò_91-2" x1="651.1" y1="1128.48" x2="651.1" y2="763.95" xlink:href="#Áåçûìÿííûé_ãðàäèåíò_91"/><linearGradient id="Áåçûìÿííûé_ãðàäèåíò_91-3" x1="639.5" y1="1128.48" x2="639.5" y2="762.73" xlink:href="#Áåçûìÿííûé_ãðàäèåíò_91"/><linearGradient id="Áåçûìÿííûé_ãðàäèåíò_87-3" x1="650.29" y1="1128.48" x2="650.29" y2="763.95" gradientTransform="matrix(1, 0, 0, 1, 0, 0)" xlink:href="#Áåçûìÿííûé_ãðàäèåíò_87"/><linearGradient id="Áåçûìÿííûé_ãðàäèåíò_87-4" x1="638.8" y1="1128.48" x2="638.8" y2="762.73" gradientTransform="matrix(1, 0, 0, 1, 0, 0)" xlink:href="#Áåçûìÿííûé_ãðàäèåíò_87"/><linearGradient id="Áåçûìÿííûé_ãðàäèåíò_87-5" x1="637.1" y1="663.07" x2="637.1" y2="620.68" gradientTransform="matrix(1, 0, 0, 1, 0, 0)" xlink:href="#Áåçûìÿííûé_ãðàäèåíò_87"/><linearGradient id="Áåçûìÿííûé_ãðàäèåíò_133" x1="800.19" y1="789.77" x2="800.19" y2="753.99" gradientUnits="userSpaceOnUse"><stop offset="0" stop-color="#130052"/><stop offset="1" stop-color="#5b1174"/></linearGradient><linearGradient id="Áåçûìÿííûé_ãðàäèåíò_133-2" x1="792.09" y1="1130.96" x2="792.09" y2="782.7" xlink:href="#Áåçûìÿííûé_ãðàäèåíò_133"/><linearGradient id="Áåçûìÿííûé_ãðàäèåíò_133-3" x1="765.23" y1="1130.96" x2="765.23" y2="880.14" xlink:href="#Áåçûìÿííûé_ãðàäèåíò_133"/><linearGradient id="Áåçûìÿííûé_ãðàäèåíò_97-2" x1="765.23" y1="1130.96" x2="765.23" y2="880.14" gradientTransform="matrix(1, 0, 0, 1, 0, 0)" xlink:href="#Áåçûìÿííûé_ãðàäèåíò_97"/><linearGradient id="Áåçûìÿííûé_ãðàäèåíò_97-3" x1="786.61" y1="1130.96" x2="786.61" y2="880.14" gradientTransform="matrix(1, 0, 0, 1, 0, 0)" xlink:href="#Áåçûìÿííûé_ãðàäèåíò_97"/><linearGradient id="Áåçûìÿííûé_ãðàäèåíò_121" x1="789.59" y1="1130.96" x2="789.59" y2="880.14" gradientUnits="userSpaceOnUse"><stop offset="0" stop-color="#270089"/><stop offset="1" stop-color="#006fbb"/></linearGradient><linearGradient id="Áåçûìÿííûé_ãðàäèåíò_121-2" x1="842.09" y1="1130.96" x2="842.09" y2="782.7" xlink:href="#Áåçûìÿííûé_ãðàäèåíò_121"/><linearGradient id="Áåçûìÿííûé_ãðàäèåíò_121-3" x1="829.08" y1="786.27" x2="829.08" y2="753.99" xlink:href="#Áåçûìÿííûé_ãðàäèåíò_121"/><linearGradient id="Áåçûìÿííûé_ãðàäèåíò_87-6" x1="819.86" y1="1130.96" x2="819.86" y2="782.7" gradientTransform="matrix(1, 0, 0, 1, 0, 0)" xlink:href="#Áåçûìÿííûé_ãðàäèåíò_87"/><linearGradient id="Áåçûìÿííûé_ãðàäèåíò_97-4" x1="837.46" y1="1128.69" x2="792.7" y2="785.34" gradientTransform="matrix(1, 0, 0, 1, 0, 0)" xlink:href="#Áåçûìÿííûé_ãðàäèåíò_97"/><linearGradient id="Áåçûìÿííûé_ãðàäèåíò_87-7" x1="858.29" y1="1129.12" x2="858.29" y2="787.3" gradientTransform="matrix(1, 0, 0, 1, 0, 0)" xlink:href="#Áåçûìÿííûé_ãðàäèåíò_87"/><linearGradient id="Áåçûìÿííûé_ãðàäèåíò_87-8" x1="836.05" y1="786.27" x2="836.05" y2="734.55" gradientTransform="matrix(1, 0, 0, 1, 0, 0)" xlink:href="#Áåçûìÿííûé_ãðàäèåíò_87"/><linearGradient id="Áåçûìÿííûé_ãðàäèåíò_97-5" x1="836.95" y1="785.84" x2="830.33" y2="735.03" gradientTransform="matrix(1, 0, 0, 1, 0, 0)" xlink:href="#Áåçûìÿííûé_ãðàäèåíò_97"/><linearGradient id="Áåçûìÿííûé_ãðàäèåíò_87-9" x1="821.5" y1="784.15" x2="821.5" y2="730.05" gradientTransform="matrix(1, 0, 0, 1, 0, 0)" xlink:href="#Áåçûìÿííûé_ãðàäèåíò_87"/><linearGradient id="Áåçûìÿííûé_ãðàäèåíò_97-6" x1="821.93" y1="783.47" x2="815.05" y2="730.68" gradientTransform="matrix(1, 0, 0, 1, 0, 0)" xlink:href="#Áåçûìÿííûé_ãðàäèåíò_97"/><linearGradient id="Áåçûìÿííûé_ãðàäèåíò_103" x1="381.92" y1="803.08" x2="381.92" y2="733.8" gradientUnits="userSpaceOnUse"><stop offset="0" stop-color="#6066fe"/><stop offset="1" stop-color="#1b93bb"/></linearGradient><linearGradient id="Áåçûìÿííûé_ãðàäèåíò_74-7" x1="343.97" y1="1129.33" x2="343.97" y2="762.71" xlink:href="#Áåçûìÿííûé_ãðàäèåíò_74"/><linearGradient id="Áåçûìÿííûé_ãðàäèåíò_68-2" x1="390.05" y1="946.02" x2="452.46" y2="946.02" xlink:href="#Áåçûìÿííûé_ãðàäèåíò_68"/><linearGradient id="Áåçûìÿííûé_ãðàäèåíò_60-11" x1="353" y1="748.26" x2="411.05" y2="748.26" xlink:href="#Áåçûìÿííûé_ãðàäèåíò_60"/><linearGradient id="Áåçûìÿííûé_ãðàäèåíò_74-8" x1="369.22" y1="803.08" x2="369.22" y2="733.8" xlink:href="#Áåçûìÿííûé_ãðàäèåíò_74"/><linearGradient id="Áåçûìÿííûé_ãðàäèåíò_108-5" x1="362.79" y1="717.08" x2="404.23" y2="717.08" xlink:href="#Áåçûìÿííûé_ãðàäèåíò_108"/><linearGradient id="Áåçûìÿííûé_ãðàäèåíò_60-12" x1="362.79" y1="716.44" x2="390.05" y2="716.44" xlink:href="#Áåçûìÿííûé_ãðàäèåíò_60"/><linearGradient id="Áåçûìÿííûé_ãðàäèåíò_103-2" x1="364.66" y1="1127.54" x2="364.66" y2="821.05" xlink:href="#Áåçûìÿííûé_ãðàäèåíò_103"/><linearGradient id="Áåçûìÿííûé_ãðàäèåíò_103-3" x1="389.82" y1="1127.9" x2="389.82" y2="823.64" xlink:href="#Áåçûìÿííûé_ãðàäèåíò_103"/><linearGradient id="Áåçûìÿííûé_ãðàäèåíò_103-4" x1="389.92" y1="1129.26" x2="389.92" y2="762.71" xlink:href="#Áåçûìÿííûé_ãðàäèåíò_103"/><linearGradient id="Áåçûìÿííûé_ãðàäèåíò_103-5" x1="381.18" y1="960.19" x2="381.18" y2="948.14" xlink:href="#Áåçûìÿííûé_ãðàäèåíò_103"/><linearGradient id="Áåçûìÿííûé_ãðàäèåíò_103-6" x1="422.84" y1="1127.9" x2="422.84" y2="950.97" xlink:href="#Áåçûìÿííûé_ãðàäèåíò_103"/><linearGradient id="Áåçûìÿííûé_ãðàäèåíò_68-3" x1="343.85" y1="1127.54" x2="343.85" y2="950.08" xlink:href="#Áåçûìÿííûé_ãðàäèåíò_68"/><linearGradient id="Áåçûìÿííûé_ãðàäèåíò_68-4" x1="739.06" y1="761.13" x2="739.06" y2="732.81" xlink:href="#Áåçûìÿííûé_ãðàäèåíò_68"/><linearGradient id="Áåçûìÿííûé_ãðàäèåíò_81-3" x1="704.9" y1="765.5" x2="704.9" y2="732.81" xlink:href="#Áåçûìÿííûé_ãðàäèåíò_81"/><linearGradient id="Áåçûìÿííûé_ãðàäèåíò_68-5" x1="746.02" y1="1133.88" x2="746.02" y2="757.72" xlink:href="#Áåçûìÿííûé_ãðàäèåíò_68"/><linearGradient id="Áåçûìÿííûé_ãðàäèåíò_32-6" x1="702.26" y1="1133.88" x2="702.26" y2="757.72" xlink:href="#Áåçûìÿííûé_ãðàäèåíò_32"/><linearGradient id="Áåçûìÿííûé_ãðàäèåíò_87-10" x1="737.04" y1="734.81" x2="731.44" y2="691.84" gradientTransform="matrix(1, 0, 0, 1, 0, 0)" xlink:href="#Áåçûìÿííûé_ãðàäèåíò_87"/><linearGradient id="Áåçûìÿííûé_ãðàäèåíò_97-7" x1="711.59" y1="736.33" x2="706.22" y2="695.12" gradientTransform="matrix(1, 0, 0, 1, 0, 0)" xlink:href="#Áåçûìÿííûé_ãðàäèåíò_97"/><linearGradient id="Áåçûìÿííûé_ãðàäèåíò_87-11" x1="692.63" y1="735.74" x2="688.06" y2="700.71" gradientTransform="matrix(1, 0, 0, 1, 0, 0)" xlink:href="#Áåçûìÿííûé_ãðàäèåíò_87"/><linearGradient id="Áåçûìÿííûé_ãðàäèåíò_60-13" x1="249.2" y1="802.16" x2="260.67" y2="802.16" xlink:href="#Áåçûìÿííûé_ãðàäèåíò_60"/><linearGradient id="Áåçûìÿííûé_ãðàäèåíò_108-6" x1="260.67" y1="801.45" x2="315.45" y2="801.45" xlink:href="#Áåçûìÿííûé_ãðàäèåíò_108"/><linearGradient id="Áåçûìÿííûé_ãðàäèåíò_81-4" x1="251.69" y1="844.27" x2="251.69" y2="812.66" xlink:href="#Áåçûìÿííûé_ãðàäèåíò_81"/><linearGradient id="Áåçûìÿííûé_ãðàäèåíò_32-7" x1="239.5" y1="1128.48" x2="239.5" y2="834.23" xlink:href="#Áåçûìÿííûé_ãðàäèåíò_32"/><linearGradient id="Áåçûìÿííûé_ãðàäèåíò_21-11" x1="297.26" y1="1127.98" x2="297.26" y2="834.24" xlink:href="#Áåçûìÿííûé_ãðàäèåíò_21"/><linearGradient id="Áåçûìÿííûé_ãðàäèåíò_21-12" x1="292.31" y1="841.23" x2="292.31" y2="812.66" xlink:href="#Áåçûìÿííûé_ãðàäèåíò_21"/><linearGradient id="Áåçûìÿííûé_ãðàäèåíò_81-5" x1="261.15" y1="790.78" x2="261.15" y2="772.53" xlink:href="#Áåçûìÿííûé_ãðàäèåíò_81"/><linearGradient id="Áåçûìÿííûé_ãðàäèåíò_21-13" x1="287.61" y1="792.54" x2="287.61" y2="772.53" xlink:href="#Áåçûìÿííûé_ãðàäèåíò_21"/><linearGradient id="Áåçûìÿííûé_ãðàäèåíò_68-6" x1="276.95" y1="724.91" x2="282.13" y2="724.91" xlink:href="#Áåçûìÿííûé_ãðàäèåíò_68"/><linearGradient id="Áåçûìÿííûé_ãðàäèåíò_81-6" x1="274.45" y1="724.5" x2="276.95" y2="724.5" xlink:href="#Áåçûìÿííûé_ãðàäèåíò_81"/><linearGradient id="Áåçûìÿííûé_ãðàäèåíò_108-7" x1="253.89" y1="912.28" x2="336.5" y2="912.28" xlink:href="#Áåçûìÿííûé_ãðàäèåíò_108"/><linearGradient id="Áåçûìÿííûé_ãðàäèåíò_108-8" x1="252.35" y1="1036.38" x2="340.34" y2="1036.38" xlink:href="#Áåçûìÿííûé_ãðàäèåíò_108"/><linearGradient id="Áåçûìÿííûé_ãðàäèåíò_60-14" x1="232.37" y1="912.28" x2="253.97" y2="912.28" xlink:href="#Áåçûìÿííûé_ãðàäèåíò_60"/><linearGradient id="Áåçûìÿííûé_ãðàäèåíò_60-15" x1="227.51" y1="1035.98" x2="252.43" y2="1035.98" xlink:href="#Áåçûìÿííûé_ãðàäèåíò_60"/><linearGradient id="Áåçûìÿííûé_ãðàäèåíò_32-8" x1="294.62" y1="863.7" x2="294.62" y2="855.49" xlink:href="#Áåçûìÿííûé_ãðàäèåíò_32"/><linearGradient id="Áåçûìÿííûé_ãðàäèåíò_32-9" x1="295.29" y1="923.2" x2="295.29" y2="919.44" xlink:href="#Áåçûìÿííûé_ãðàäèåíò_32"/><linearGradient id="Áåçûìÿííûé_ãðàäèåíò_32-10" x1="295.13" y1="907" x2="295.13" y2="903.29" xlink:href="#Áåçûìÿííûé_ãðàäèåíò_32"/><linearGradient id="Áåçûìÿííûé_ãðàäèåíò_32-11" x1="295.61" y1="956.08" x2="295.61" y2="952.29" xlink:href="#Áåçûìÿííûé_ãðàäèåíò_32"/><linearGradient id="Áåçûìÿííûé_ãðàäèåíò_32-12" x1="295.75" y1="971.17" x2="295.75" y2="967.36" xlink:href="#Áåçûìÿííûé_ãðàäèåíò_32"/><linearGradient id="Áåçûìÿííûé_ãðàäèåíò_32-13" x1="295.9" y1="986.27" x2="295.9" y2="982.44" xlink:href="#Áåçûìÿííûé_ãðàäèåíò_32"/><linearGradient id="Áåçûìÿííûé_ãðàäèåíò_32-14" x1="296.04" y1="1001.36" x2="296.04" y2="997.5" xlink:href="#Áåçûìÿííûé_ãðàäèåíò_32"/><linearGradient id="Áåçûìÿííûé_ãðàäèåíò_32-15" x1="296.44" y1="1064.16" x2="296.44" y2="1060.22" xlink:href="#Áåçûìÿííûé_ãðàäèåíò_32"/><linearGradient id="Áåçûìÿííûé_ãðàäèåíò_32-16" x1="297.01" y1="1103.76" x2="297.01" y2="1099.79" xlink:href="#Áåçûìÿííûé_ãðàäèåíò_32"/><linearGradient id="Áåçûìÿííûé_ãðàäèåíò_32-17" x1="296.19" y1="1016.44" x2="296.19" y2="1012.48" xlink:href="#Áåçûìÿííûé_ãðàäèåíò_32"/><linearGradient id="Áåçûìÿííûé_ãðàäèåíò_32-18" x1="296.34" y1="1031.53" x2="296.34" y2="1027.63" xlink:href="#Áåçûìÿííûé_ãðàäèåíò_32"/><linearGradient id="Áåçûìÿííûé_ãðàäèåíò_32-19" x1="294.87" y1="892.48" x2="294.87" y2="887.42" xlink:href="#Áåçûìÿííûé_ãðàäèåíò_32"/><linearGradient id="Áåçûìÿííûé_ãðàäèåíò_32-20" x1="294.87" y1="879.03" x2="294.87" y2="874.03" xlink:href="#Áåçûìÿííûé_ãðàäèåíò_32"/><linearGradient id="Áåçûìÿííûé_ãðàäèåíò_32-21" x1="287.06" y1="1129.31" x2="287.06" y2="828.46" xlink:href="#Áåçûìÿííûé_ãðàäèåíò_32"/><linearGradient id="Áåçûìÿííûé_ãðàäèåíò_271" x1="300.23" y1="1129.31" x2="300.23" y2="828.46" gradientUnits="userSpaceOnUse"><stop offset="0" stop-color="#5c00b5"/><stop offset="1" stop-color="#8400a7"/></linearGradient><linearGradient id="Áåçûìÿííûé_ãðàäèåíò_108-9" x1="292.05" y1="903.25" x2="306.34" y2="903.25" xlink:href="#Áåçûìÿííûé_ãðàäèåíò_108"/><linearGradient id="Áåçûìÿííûé_ãðàäèåíò_108-10" x1="291.65" y1="1018.21" x2="307.79" y2="1018.21" xlink:href="#Áåçûìÿííûé_ãðàäèåíò_108"/><linearGradient id="Áåçûìÿííûé_ãðàäèåíò_21-14" x1="968.62" y1="986.14" x2="968.62" y2="898.81" xlink:href="#Áåçûìÿííûé_ãðàäèåíò_21"/><linearGradient id="Áåçûìÿííûé_ãðàäèåíò_74-9" x1="874.82" y1="980.52" x2="874.82" y2="866.69" xlink:href="#Áåçûìÿííûé_ãðàäèåíò_74"/><linearGradient id="Áåçûìÿííûé_ãðàäèåíò_32-22" x1="874.82" y1="999.22" x2="874.82" y2="898.81" xlink:href="#Áåçûìÿííûé_ãðàäèåíò_32"/><linearGradient id="Áåçûìÿííûé_ãðàäèåíò_68-7" x1="903.15" y1="990.25" x2="1043.4" y2="990.25" xlink:href="#Áåçûìÿííûé_ãðàäèåíò_68"/><linearGradient id="Áåçûìÿííûé_ãðàäèåíò_21-15" x1="974.47" y1="1130.11" x2="974.47" y2="986.14" xlink:href="#Áåçûìÿííûé_ãðàäèåíò_21"/><linearGradient id="Áåçûìÿííûé_ãðàäèåíò_32-23" x1="871.43" y1="1130.11" x2="871.43" y2="961.43" xlink:href="#Áåçûìÿííûé_ãðàäèåíò_32"/><linearGradient id="Áåçûìÿííûé_ãðàäèåíò_74-10" x1="870.62" y1="1014.99" x2="870.62" y2="961.43" xlink:href="#Áåçûìÿííûé_ãðàäèåíò_74"/><linearGradient id="Áåçûìÿííûé_ãðàäèåíò_68-8" x1="906.15" y1="921.1" x2="1031.09" y2="921.1" xlink:href="#Áåçûìÿííûé_ãðàäèåíò_68"/><linearGradient id="Áåçûìÿííûé_ãðàäèåíò_97-8" x1="900.67" y1="911.65" x2="894.4" y2="863.51" gradientTransform="matrix(1, 0, 0, 1, 0, 0)" xlink:href="#Áåçûìÿííûé_ãðàäèåíò_97"/><linearGradient id="Áåçûìÿííûé_ãðàäèåíò_87-12" x1="921.34" y1="911.78" x2="914.71" y2="860.87" gradientTransform="matrix(1, 0, 0, 1, 0, 0)" xlink:href="#Áåçûìÿííûé_ãðàäèåíò_87"/><linearGradient id="Áåçûìÿííûé_ãðàäèåíò_68-9" x1="209.89" y1="755.61" x2="209.89" y2="727.29" xlink:href="#Áåçûìÿííûé_ãðàäèåíò_68"/><linearGradient id="Áåçûìÿííûé_ãðàäèåíò_81-7" x1="175.73" y1="759.98" x2="175.73" y2="727.29" xlink:href="#Áåçûìÿííûé_ãðàäèåíò_81"/><linearGradient id="Áåçûìÿííûé_ãðàäèåíò_21-16" x1="216.85" y1="1128.36" x2="216.85" y2="752.21" xlink:href="#Áåçûìÿííûé_ãðàäèåíò_21"/><linearGradient id="Áåçûìÿííûé_ãðàäèåíò_32-24" x1="173.09" y1="1128.36" x2="173.09" y2="752.21" xlink:href="#Áåçûìÿííûé_ãðàäèåíò_32"/><linearGradient id="Áåçûìÿííûé_ãðàäèåíò_68-10" x1="205.92" y1="1127.97" x2="169.6" y2="849.38" xlink:href="#Áåçûìÿííûé_ãðàäèåíò_68"/><linearGradient id="Áåçûìÿííûé_ãðàäèåíò_74-11" x1="197.07" y1="1129.12" x2="160.75" y2="850.53" xlink:href="#Áåçûìÿííûé_ãðàäèåíò_74"/><linearGradient id="Áåçûìÿííûé_ãðàäèåíò_97-9" x1="179.73" y1="730.76" x2="178.17" y2="718.83" gradientTransform="matrix(1, 0, 0, 1, 0, 0)" xlink:href="#Áåçûìÿííûé_ãðàäèåíò_97"/><linearGradient id="Áåçûìÿííûé_ãðàäèåíò_87-13" x1="204.57" y1="730.1" x2="202.68" y2="715.63" gradientTransform="matrix(1, 0, 0, 1, 0, 0)" xlink:href="#Áåçûìÿííûé_ãðàäèåíò_87"/><linearGradient id="Áåçûìÿííûé_ãðàäèåíò_87-14" x1="217.89" y1="877.75" x2="206.86" y2="793.16" gradientTransform="matrix(1, 0, 0, 1, 0, 0)" xlink:href="#Áåçûìÿííûé_ãðàäèåíò_87"/><linearGradient id="Áåçûìÿííûé_ãðàäèåíò_97-10" x1="177.24" y1="882.99" x2="166.22" y2="798.46" gradientTransform="matrix(1, 0, 0, 1, 0, 0)" xlink:href="#Áåçûìÿííûé_ãðàäèåíò_97"/><linearGradient id="Áåçûìÿííûé_ãðàäèåíò_32-25" x1="143.26" y1="885.17" x2="226.81" y2="885.17" xlink:href="#Áåçûìÿííûé_ãðàäèåíò_32"/><linearGradient id="Áåçûìÿííûé_ãðàäèåíò_32-26" x1="143.26" y1="1075.93" x2="230.73" y2="1075.93" xlink:href="#Áåçûìÿííûé_ãðàäèåíò_32"/><linearGradient id="Áåçûìÿííûé_ãðàäèåíò_32-27" x1="143.26" y1="834.03" x2="225.08" y2="834.03" xlink:href="#Áåçûìÿííûé_ãðàäèåíò_32"/><linearGradient id="Áåçûìÿííûé_ãðàäèåíò_108-11" x1="19.48" y1="896.92" x2="147.9" y2="896.92" xlink:href="#Áåçûìÿííûé_ãðàäèåíò_108"/><linearGradient id="Áåçûìÿííûé_ãðàäèåíò_137" x1="19.48" y1="1006.59" x2="161.07" y2="1006.59" gradientUnits="userSpaceOnUse"><stop offset="0" stop-color="#5a0074"/><stop offset="1" stop-color="#5c00b5"/></linearGradient><linearGradient id="Áåçûìÿííûé_ãðàäèåíò_60-16" x1="19.39" y1="909.09" x2="19.39" y2="885.92" xlink:href="#Áåçûìÿííûé_ãðàäèåíò_60"/><linearGradient id="Áåçûìÿííûé_ãðàäèåíò_134" y1="1015.91" x2="23.28" y2="1015.91" gradientUnits="userSpaceOnUse"><stop offset="0" stop-color="#1b0033"/><stop offset="1" stop-color="#5d0084"/></linearGradient><linearGradient id="Áåçûìÿííûé_ãðàäèåíò_134-2" x1="51.05" y1="1135.04" x2="51.05" y2="883.03" xlink:href="#Áåçûìÿííûé_ãðàäèåíò_134"/><linearGradient id="Áåçûìÿííûé_ãðàäèåíò_134-3" x1="99.89" y1="1135.85" x2="99.89" y2="878.78" xlink:href="#Áåçûìÿííûé_ãðàäèåíò_134"/><linearGradient id="Áåçûìÿííûé_ãðàäèåíò_134-4" x1="142.53" y1="1134.67" x2="142.53" y2="888.09" xlink:href="#Áåçûìÿííûé_ãðàäèåíò_134"/><linearGradient id="Áåçûìÿííûé_ãðàäèåíò_170" x1="613.52" y1="938.74" x2="613.52" y2="833.46" gradientUnits="userSpaceOnUse"><stop offset="0" stop-color="#e84089"/><stop offset="1" stop-color="#ffc000"/></linearGradient><linearGradient id="Áåçûìÿííûé_ãðàäèåíò_157" x1="604.61" y1="925.68" x2="604.61" y2="833.46" gradientUnits="userSpaceOnUse"><stop offset="0" stop-color="#5c0079"/><stop offset="1" stop-color="#ce544c"/></linearGradient><linearGradient id="Áåçûìÿííûé_ãðàäèåíò_87-15" x1="619.25" y1="1017.59" x2="619.25" y2="910.23" gradientTransform="matrix(1, 0, 0, 1, 0, 0)" xlink:href="#Áåçûìÿííûé_ãðàäèåíò_87"/><linearGradient id="Áåçûìÿííûé_ãðàäèåíò_97-11" x1="597.39" y1="981.77" x2="597.39" y2="910.23" gradientTransform="matrix(1, 0, 0, 1, 0, 0)" xlink:href="#Áåçûìÿííûé_ãðàäèåíò_97"/><linearGradient id="Áåçûìÿííûé_ãðàäèåíò_157-2" x1="588.32" y1="1138.82" x2="588.32" y2="968.72" xlink:href="#Áåçûìÿííûé_ãðàäèåíò_157"/><linearGradient id="Áåçûìÿííûé_ãðàäèåíò_151" x1="623.64" y1="1138.82" x2="623.64" y2="968.72" gradientUnits="userSpaceOnUse"><stop offset="0" stop-color="#9500b5"/><stop offset="1" stop-color="#ff9300"/></linearGradient><linearGradient id="Áåçûìÿííûé_ãðàäèåíò_97-12" x1="56.51" y1="826.71" x2="56.51" y2="804.14" xlink:href="#Áåçûìÿííûé_ãðàäèåíò_97"/><linearGradient id="Áåçûìÿííûé_ãðàäèåíò_81-8" x1="128.95" y1="870.82" x2="115.09" y2="764.46" xlink:href="#Áåçûìÿííûé_ãðàäèåíò_81"/><linearGradient id="Áåçûìÿííûé_ãðàäèåíò_21-17" x1="124.57" y1="872.03" x2="124.57" y2="763.77" xlink:href="#Áåçûìÿííûé_ãðàäèåíò_21"/><linearGradient id="Áåçûìÿííûé_ãðàäèåíò_87-16" x1="64.97" y1="829.3" x2="64.97" y2="804.14" xlink:href="#Áåçûìÿííûé_ãðàäèåíò_87"/><linearGradient id="Áåçûìÿííûé_ãðàäèåíò_170-2" x1="131.44" y1="930.58" x2="131.44" y2="886.82" xlink:href="#Áåçûìÿííûé_ãðàäèåíò_170"/><linearGradient id="Áåçûìÿííûé_ãðàäèåíò_157-3" x1="109.68" y1="937.29" x2="109.68" y2="886.82" xlink:href="#Áåçûìÿííûé_ãðàäèåíò_157"/><linearGradient id="Áåçûìÿííûé_ãðàäèåíò_157-4" x1="106.58" y1="1138.17" x2="106.58" y2="927.27" xlink:href="#Áåçûìÿííûé_ãðàäèåíò_157"/><linearGradient id="Áåçûìÿííûé_ãðàäèåíò_151-2" x1="142" y1="1138.17" x2="142" y2="927.27" xlink:href="#Áåçûìÿííûé_ãðàäèåíò_151"/><linearGradient id="Áåçûìÿííûé_ãðàäèåíò_157-5" x1="126.35" y1="1138.17" x2="126.35" y2="927.94" xlink:href="#Áåçûìÿííûé_ãðàäèåíò_157"/><linearGradient id="Áåçûìÿííûé_ãðàäèåíò_87-17" x1="125.65" y1="1138.17" x2="125.65" y2="927.94" gradientTransform="matrix(1, 0, 0, 1, 0, 0)" xlink:href="#Áåçûìÿííûé_ãðàäèåíò_87"/><linearGradient id="Áåçûìÿííûé_ãðàäèåíò_87-18" x1="120.88" y1="928" x2="120.88" y2="887.42" gradientTransform="matrix(1, 0, 0, 1, 0, 0)" xlink:href="#Áåçûìÿííûé_ãðàäèåíò_87"/><linearGradient id="Áåçûìÿííûé_ãðàäèåíò_157-6" x1="121.64" y1="928.07" x2="121.64" y2="887.59" xlink:href="#Áåçûìÿííûé_ãðàäèåíò_157"/></defs><title>BackGround</title><g class="cls-1"><g id="Layer_2" data-name="Layer 2"><g id="Layer_1-2" data-name="Layer 1"><g id="BackGround"><g id="BackGround-2" data-name="BackGround"><path class="cls-2" d="M725.18,823.93l88-7.76C677.18,695.5,609,587.05,582.26,418.63v1.48c-.73-6.29-1.83-12.58-2.58-18.87l.75,5.54c-11-77.72-13.93-168.4-11-278.33l-.36,3C550,218,539.75,304.25,540.48,389.38v4.83c2.2,165.82,44.34,329.41,138.16,488.2H723c.36-18.87,1.83-39.6,2.2-58.48Z"/><path class="cls-3" d="M796.64,882.41H921.23V816.9c-252.12-118.45-347-353.85-352.16-656.26v.75h0c-5.51,334.24,49.09,481.91,244.07,654.78l-44.36,3.7c-14.65,1.47-29.68,3-43.6,4.06,23.82,19.63,47.64,39.24,71.46,58.48Z"/><path class="cls-4" d="M593.62,0c-9.9,15.55-20.16,31.09-30.42,46.64-30.42,142.51-36.28,266.87-50.94,398.27C526.19,535.23,550,605.18,580.8,661.07v-.37c-52.41-173.22-51.31-350.15-11.73-529.3h0c2.56-31.08,8-57,15.75-88.46h0c2.93-14.43,5.86-28.5,8.8-42.94"/><path class="cls-5" d="M582.26,420.11v-3c-.73-5.18-1.83-10.73-2.58-15.91.75,6.29,1.85,12.58,2.58,18.87Z"/><path class="cls-6" d="M469,87l12.83-31.47h60.47L555.14,87c-22,116.59-28.59,222.45-39.95,331.64h-5.87C497.61,309.44,491,204,469,87.35Z"/><polygon class="cls-7" points="481.84 55.52 542.31 55.52 555.14 86.99 542.31 119.93 481.84 119.93 469.01 86.99 481.84 55.52"/><path class="cls-8" d="M512.26,136.21h0c4.77,0,8.06,4.08,8.79,8.89l13.56,81.8-44.7-.37,13.56-81.43c.73-4.81,4-8.89,8.79-8.89Z"/><path class="cls-9" d="M512.26,444.91c-4.4,28.13-9.89,55.15-16.13,79.58V882.41h50.21l.37-63.29h22v63.29h36.64c17.23-45.89,7-99.19,0-150.28-9.15-23.68-17.59-47.36-24.54-71.43v.37c-30.8-55.89-54.61-125.84-68.54-216.16Z"/><path class="cls-10" d="M512.26,444.91c4.4,28.13,10.26,56.64,16.49,81.43,0,118.82.37,237.26.37,356.07H478.91l-.73-63.29h-22l.38,63.29H419.91c-16.85-45.89-7.33-99.19-.36-150.28,9.15-23.68,17.22-47.36,24.55-71.43v.37c30.78-55.89,54.24-125.84,68.16-216.16Z"/><path class="cls-11" d="M584.82,42.94c15.76,2.59,30.78,5.19,46.54,7.78-9.15,156.56-14.66,312.39.36,461.18l-1.09-2.59V509c-1.47-3.34-2.57-6.29-3.66-9.26v-.36l-1.11-2.6c-1.09-2.59-1.82-5.18-2.92-7.4l-.73-2.59-.37-.75c-1.11-3.33-2.21-6.28-3.31-9.25v-.37l-1.1-2.58h0q-1.65-5-3.29-10v-.74l-3.3-10-.73-2.58c-5.87-19.26-11.36-39.24-15.76-59.59l-.73-2.61q-1.11-5.55-2.2-11.09l-.74-3c-.36-2.95-1.1-5.54-1.47-8.51l-.73-2.59v-.36A95.09,95.09,0,0,1,586.65,352l-.36-1.11c-.74-3.32-1.1-7-1.83-10.73-10.27-62.18-15.39-128.44-15.76-198a627.87,627.87,0,0,1,16.12-99.19Z"/><path class="cls-12" d="M299.34,823.93l-87.95-7.76c136-120.67,203.75-229.12,230.5-397.54v1.48c1.11-6.29,1.85-12.58,2.94-18.87l-1.09,5.54c11.35-77.72,14.29-168.4,11.35-278.33l.36,3c19.07,86.61,29,172.85,28.6,258v4.83C481.84,560,439.33,723.62,345.88,882.41H301.54c-.37-18.87-1.83-39.6-2.2-58.48Z"/><path class="cls-13" d="M227.88,882.41h-125V816.9C355,698.45,450,463.05,455.45,160.64v.75h0C461,495.63,406,643.3,211.39,816.17l44,3.7c15,1.47,30.05,3,44,4.06-23.82,19.63-47.63,39.24-71.46,58.48Z"/><path class="cls-14" d="M430.54,0C440.79,15.55,450.69,31.09,461,46.64c30.78,142.51,36.27,266.87,51.3,398.27-13.92,90.32-37.74,160.27-68.52,216.16v-.37c52-173.22,51.29-350.15,11.71-529.3h0c-2.56-31.08-8.05-57-16.12-88.46h0c-2.93-14.43-5.86-28.5-8.79-42.94"/><path class="cls-2" d="M441.89,420.11v-3c1.11-5.18,1.85-10.73,2.94-15.91-1.09,6.29-1.83,12.58-2.94,18.87Z"/><path class="cls-15" d="M439.33,42.94c-15.39,2.59-30.78,5.19-46.53,7.78,9.16,156.56,15,312.39-.37,461.18l1.1-2.59.36-.36a70.27,70.27,0,0,1,3.66-9.26v-.36l1.1-2.6c.73-2.59,1.83-5.18,2.56-7.4l1.11-2.59.37-.75c1.1-3.33,2.2-6.28,2.93-9.25l.37-.37.73-2.58h0q1.65-5,3.29-10l.37-.74q1.65-5,3.29-10l.74-2.58c5.87-19.26,11-39.24,15.4-59.59l.73-2.61c.73-3.7,1.83-7.39,2.57-11.09l.36-3c.73-2.95,1.1-5.54,1.83-8.51l.37-2.59v-.36c.73-3.34,1.46-7,2.19-10.75v-1.11a92.15,92.15,0,0,0,1.84-10.73c10.63-62.18,15.39-128.44,15.75-198a552.93,552.93,0,0,0-16.12-99.19Z"/><polygon class="cls-16" points="558.56 648.96 549.57 655.73 554.64 558.97 558.56 550.19 558.56 648.96"/><polygon class="cls-17" points="558.56 648.96 565.26 648.96 561.91 550.19 558.56 550.19 558.56 648.96"/><rect class="cls-18" x="558.56" y="640.79" width="6.7" height="8.17"/><polygon class="cls-19" points="558.56 640.79 549.95 648.5 549.57 655.73 558.56 648.96 558.56 640.79"/><polygon class="cls-20" points="518.54 1122.29 529.09 703.21 565.7 772.07 573.85 1122.29 518.54 1122.29"/><polygon class="cls-21" points="566.06 808.52 599.96 808.52 552.66 703.21 529.09 703.21 566.06 808.52"/><polygon class="cls-22" points="599.96 808.52 617.98 1122.29 573.85 1122.29 566.06 808.52 599.96 808.52"/><polygon class="cls-23" points="566.06 787.92 536.51 703.21 536.51 667.1 553.75 648.5 566.06 787.92"/><polygon class="cls-24" points="566.06 787.92 588.13 787.92 570.16 647.6 553.75 648.5 566.06 787.92"/><path class="cls-25" d="M596.94,819.75a1.53,1.53,0,1,1-1.48-1.59A1.54,1.54,0,0,1,596.94,819.75Z"/><path class="cls-25" d="M562.14,817a1.54,1.54,0,1,1-1.48-1.58A1.53,1.53,0,0,1,562.14,817Z"/><path class="cls-25" d="M584.27,769.24a1.53,1.53,0,1,1-3.06-.11,1.53,1.53,0,1,1,3.06.11Z"/><path class="cls-25" d="M564.52,721.66a1.54,1.54,0,1,1-1.48-1.59A1.54,1.54,0,0,1,564.52,721.66Z"/><path class="cls-25" d="M566.05,721.66a1.53,1.53,0,1,1-1.48-1.59A1.52,1.52,0,0,1,566.05,721.66Z"/><path class="cls-25" d="M563,689.34a1.54,1.54,0,1,1-1.48-1.59A1.54,1.54,0,0,1,563,689.34Z"/><path class="cls-25" d="M572.47,689.34a1.53,1.53,0,1,1-1.48-1.59A1.54,1.54,0,0,1,572.47,689.34Z"/><path class="cls-25" d="M567.6,664.66a1.54,1.54,0,1,1-1.48-1.59A1.53,1.53,0,0,1,567.6,664.66Z"/><path class="cls-25" d="M592.78,835.05a1.54,1.54,0,1,1-1.48-1.59A1.53,1.53,0,0,1,592.78,835.05Z"/><path class="cls-25" d="M592,819.75a1.54,1.54,0,1,1-1.48-1.59A1.54,1.54,0,0,1,592,819.75Z"/><path class="cls-25" d="M556.81,817a1.53,1.53,0,1,1-1.48-1.58A1.53,1.53,0,0,1,556.81,817Z"/><path class="cls-25" d="M573.58,852.6A1.54,1.54,0,1,1,572.1,851,1.54,1.54,0,0,1,573.58,852.6Z"/><path class="cls-25" d="M593.52,872.55A1.53,1.53,0,1,1,592,871,1.54,1.54,0,0,1,593.52,872.55Z"/><path class="cls-25" d="M545.18,871a1.53,1.53,0,1,1-1.48-1.59A1.53,1.53,0,0,1,545.18,871Z"/><path class="cls-25" d="M595.06,889.49a1.54,1.54,0,1,1-1.48-1.59A1.53,1.53,0,0,1,595.06,889.49Z"/><path class="cls-25" d="M574.56,919.5a1.53,1.53,0,1,1-3.06-.11,1.53,1.53,0,1,1,3.06.11Z"/><path class="cls-25" d="M582.14,919.5a1.53,1.53,0,1,1-1.48-1.59A1.54,1.54,0,0,1,582.14,919.5Z"/><path class="cls-25" d="M577.54,954.21a1.54,1.54,0,1,1-1.48-1.58A1.53,1.53,0,0,1,577.54,954.21Z"/><path class="cls-25" d="M579.07,954.21a1.53,1.53,0,1,1-1.48-1.58A1.52,1.52,0,0,1,579.07,954.21Z"/><path class="cls-25" d="M598.48,974.29A1.54,1.54,0,1,1,597,972.7,1.53,1.53,0,0,1,598.48,974.29Z"/><path class="cls-26" d="M576.1,819.75a1.54,1.54,0,1,1-1.48-1.59A1.54,1.54,0,0,1,576.1,819.75Z"/><path class="cls-26" d="M580.61,769.24a1.54,1.54,0,1,1-1.48-1.59A1.54,1.54,0,0,1,580.61,769.24Z"/><path class="cls-26" d="M572.47,721.66a1.53,1.53,0,1,1-1.48-1.59A1.54,1.54,0,0,1,572.47,721.66Z"/><path class="cls-26" d="M570.51,783.24a1.54,1.54,0,1,1-1.48-1.58A1.53,1.53,0,0,1,570.51,783.24Z"/><path class="cls-26" d="M594.31,835.05a1.54,1.54,0,1,1-1.48-1.59A1.53,1.53,0,0,1,594.31,835.05Z"/><path class="cls-26" d="M600.21,852.6a1.54,1.54,0,1,1-1.48-1.59A1.54,1.54,0,0,1,600.21,852.6Z"/><path class="cls-26" d="M583.68,919.5a1.54,1.54,0,1,1-1.48-1.59A1.54,1.54,0,0,1,583.68,919.5Z"/><path class="cls-25" d="M577.59,995.53a1.54,1.54,0,1,1-1.48-1.58A1.53,1.53,0,0,1,577.59,995.53Z"/><path class="cls-25" d="M540.82,995.53a1.54,1.54,0,1,1-1.48-1.58A1.53,1.53,0,0,1,540.82,995.53Z"/><path class="cls-25" d="M582.14,1055.36a1.53,1.53,0,1,1-1.48-1.59A1.54,1.54,0,0,1,582.14,1055.36Z"/><path class="cls-25" d="M585.17,995.53a1.54,1.54,0,1,1-1.48-1.58A1.53,1.53,0,0,1,585.17,995.53Z"/><path class="cls-26" d="M586.7,995.53a1.54,1.54,0,1,1-1.48-1.58A1.53,1.53,0,0,1,586.7,995.53Z"/><path class="cls-26" d="M551.94,995.53a1.54,1.54,0,1,1-1.48-1.58A1.53,1.53,0,0,1,551.94,995.53Z"/><path class="cls-26" d="M601.74,1053.82a1.53,1.53,0,1,1-3.06-.11,1.53,1.53,0,1,1,3.06.11Z"/><path class="cls-26" d="M603.28,941.52a1.54,1.54,0,1,1-1.48-1.58A1.53,1.53,0,0,1,603.28,941.52Z"/><path class="cls-26" d="M600.21,974.35a1.54,1.54,0,1,1-1.48-1.59A1.53,1.53,0,0,1,600.21,974.35Z"/><path class="cls-26" d="M600.21,941.52a1.54,1.54,0,1,1-1.48-1.58A1.53,1.53,0,0,1,600.21,941.52Z"/><path class="cls-26" d="M596.94,872.55a1.53,1.53,0,1,1-3.06-.11,1.53,1.53,0,1,1,3.06.11Z"/><path class="cls-26" d="M579.07,872.55a1.53,1.53,0,1,1-1.48-1.59A1.53,1.53,0,0,1,579.07,872.55Z"/><path class="cls-26" d="M595.41,872.55a1.54,1.54,0,1,1-1.48-1.59A1.55,1.55,0,0,1,595.41,872.55Z"/><path class="cls-26" d="M538.57,871a1.54,1.54,0,1,1-1.48-1.59A1.53,1.53,0,0,1,538.57,871Z"/><path class="cls-26" d="M572,852.6a1.53,1.53,0,1,1-3.06-.11,1.53,1.53,0,1,1,3.06.11Z"/><polygon class="cls-27" points="582.74 745.79 562.14 745.79 566.06 787.92 588.13 787.92 582.74 745.79"/><polygon class="cls-28" points="562.14 745.79 536.51 689.28 536.51 703.21 566.06 787.92 562.14 745.79"/><polygon class="cls-29" points="562.34 562.75 558.56 562.75 558.43 570.53 562.6 570.53 562.34 562.75"/><polygon class="cls-30" points="558.56 577.52 562.84 577.52 562.92 579.92 558.56 579.92 558.56 577.52"/><polygon class="cls-31" points="558.56 562.75 554.24 566.64 553.82 574.61 558.43 570.53 558.56 562.75"/><polygon class="cls-32" points="558.56 577.52 553.45 581.64 553.31 584.31 558.56 579.92 558.56 577.52"/><polygon class="cls-33" points="543.54 858.86 540.77 851.1 482.87 846.24 480.28 854.3 543.54 858.86"/><polygon class="cls-34" points="482.87 846.24 461.71 856.82 457.93 863.52 480.28 854.3 482.87 846.24"/><polygon class="cls-35" points="482.87 846.24 475.1 833.85 551.29 842.48 540.77 851.1 482.87 846.24"/><polygon class="cls-36" points="551.29 842.48 545 800 475.1 787.92 475.1 833.85 551.29 842.48"/><polygon class="cls-37" points="475.1 787.92 460.93 795.4 455.07 845.34 475.1 833.85 475.1 787.92"/><polygon class="cls-38" points="461.71 856.82 453.07 846.24 475.1 833.85 482.87 846.24 461.71 856.82"/><polygon class="cls-39" points="475.1 854.3 549.11 859.23 564.52 1130.35 467.03 1130.35 475.1 854.3"/><polygon class="cls-40" points="475.1 854.3 451.69 866.87 431.03 1130.35 467.03 1130.35 475.1 854.3"/><polygon class="cls-41" points="508.19 793.63 508.19 685.82 510.47 684.67 510.47 794.03 508.19 793.63"/><polygon class="cls-42" points="508.19 685.82 506.83 686.97 505.35 793.14 508.19 793.63 508.19 685.82"/><polygon class="cls-43" points="508.19 1130.35 529.09 1130.35 475.1 854.3 474.18 885.64 508.19 1130.35"/><polygon class="cls-44" points="538.69 1130.35 550.1 876.74 551.67 904.38 541.57 1130.35 538.69 1130.35"/><polygon class="cls-45" points="529.09 1130.35 538.69 1130.35 550.1 876.74 549.11 859.23 475.1 854.3 529.09 1130.35"/><path class="cls-25" d="M501.63,862a1.53,1.53,0,1,1-1.53-1.53A1.53,1.53,0,0,1,501.63,862Z"/><path class="cls-25" d="M546.71,914.87a1.54,1.54,0,1,1-1.48-1.58A1.53,1.53,0,0,1,546.71,914.87Z"/><circle class="cls-25" cx="545.18" cy="865.24" r="1.53"/><path class="cls-25" d="M543.3,804.61a1.54,1.54,0,1,1-1.54-1.53A1.54,1.54,0,0,1,543.3,804.61Z"/><path class="cls-25" d="M535.5,803.08a1.54,1.54,0,1,1-1.53-1.54A1.53,1.53,0,0,1,535.5,803.08Z"/><path class="cls-25" d="M532.37,802.54a1.54,1.54,0,1,1-1.53-1.53A1.54,1.54,0,0,1,532.37,802.54Z"/><path class="cls-26" d="M481.82,792.49a1.54,1.54,0,1,1-1.54-1.53A1.54,1.54,0,0,1,481.82,792.49Z"/><path class="cls-26" d="M544.83,818.16a1.54,1.54,0,1,1-1.53-1.53A1.53,1.53,0,0,1,544.83,818.16Z"/><path class="cls-26" d="M537,816.63a1.53,1.53,0,1,1-1.53-1.54A1.53,1.53,0,0,1,537,816.63Z"/><path class="cls-25" d="M481.55,989.3a1.53,1.53,0,1,1-1.53-1.54A1.53,1.53,0,0,1,481.55,989.3Z"/><path class="cls-25" d="M483.09,989.3a1.54,1.54,0,1,1-1.54-1.54A1.54,1.54,0,0,1,483.09,989.3Z"/><path class="cls-25" d="M541.75,914.7a1.53,1.53,0,1,1-3.06-.11,1.53,1.53,0,1,1,3.06.11Z"/><path class="cls-25" d="M538.09,914.57a1.53,1.53,0,1,1-1.48-1.58A1.53,1.53,0,0,1,538.09,914.57Z"/><path class="cls-25" d="M525.45,914.14a1.54,1.54,0,1,1-1.48-1.59A1.54,1.54,0,0,1,525.45,914.14Z"/><path class="cls-25" d="M501.63,950.08a1.53,1.53,0,1,1-1.53-1.53A1.53,1.53,0,0,1,501.63,950.08Z"/><path class="cls-26" d="M503.17,950.08a1.54,1.54,0,1,1-1.54-1.53A1.54,1.54,0,0,1,503.17,950.08Z"/><path class="cls-26" d="M504.7,950.08a1.54,1.54,0,1,1-1.53-1.53A1.53,1.53,0,0,1,504.7,950.08Z"/><path class="cls-26" d="M512.71,950.08a1.54,1.54,0,1,1-1.54-1.53A1.54,1.54,0,0,1,512.71,950.08Z"/><path class="cls-26" d="M541.76,950.08a1.54,1.54,0,1,1-1.53-1.53A1.53,1.53,0,0,1,541.76,950.08Z"/><path class="cls-26" d="M533.9,978.89a1.53,1.53,0,1,1-1.53-1.54A1.52,1.52,0,0,1,533.9,978.89Z"/><path class="cls-26" d="M476.63,1042.36a1.54,1.54,0,1,1-1.53-1.53A1.54,1.54,0,0,1,476.63,1042.36Z"/><path class="cls-26" d="M515.79,913.8a1.54,1.54,0,1,1-1.48-1.58A1.53,1.53,0,0,1,515.79,913.8Z"/><path class="cls-26" d="M491.58,897.92a1.54,1.54,0,1,1-1.48-1.59A1.54,1.54,0,0,1,491.58,897.92Z"/><path class="cls-25" d="M539.63,1050.57a1.54,1.54,0,1,1-1.54-1.53A1.55,1.55,0,0,1,539.63,1050.57Z"/><path class="cls-25" d="M532.83,1050.5a1.54,1.54,0,1,1-3.07,0,1.52,1.52,0,0,1,1.52-1.54A1.54,1.54,0,0,1,532.83,1050.5Z"/><path class="cls-25" d="M529.16,1050.53a1.54,1.54,0,1,1-1.54-1.53A1.54,1.54,0,0,1,529.16,1050.53Z"/><path class="cls-25" d="M487.25,1109.4a1.54,1.54,0,1,1-1.54-1.53A1.55,1.55,0,0,1,487.25,1109.4Z"/><path class="cls-26" d="M476.63,1084.48a1.54,1.54,0,1,1-1.54-1.53A1.54,1.54,0,0,1,476.63,1084.48Z"/><path class="cls-25" d="M493.11,862a1.54,1.54,0,0,1-3.07,0,1.54,1.54,0,1,1,3.07,0Z"/><path class="cls-26" d="M491.58,862a1.54,1.54,0,1,1-1.54-1.53A1.54,1.54,0,0,1,491.58,862Z"/><polygon class="cls-46" points="548.78 825.53 475.1 816.63 457.93 824.64 457.19 827.33 475.1 818.16 548.92 826.48 548.78 825.53"/><polygon class="cls-47" points="506 1012.33 544.02 1011.93 543.91 1014.34 506.58 1015.28 506 1012.33"/><polygon class="cls-48" points="522.93 1098.89 540.11 1098.89 539.98 1101.75 523.49 1101.75 522.93 1098.89"/><polygon class="cls-49" points="633.3 704.71 628.21 709.08 627.15 728.28 633.54 727.45 633.3 704.71"/><polygon class="cls-50" points="635.14 598.55 633.54 598.55 635.06 705.24 638.04 706.14 635.14 598.55"/><polygon class="cls-51" points="640.29 706.81 636.56 598.91 635.14 598.55 636.55 705.69 640.29 706.81"/><polygon class="cls-52" points="647.48 728.24 644.59 708.11 633.3 704.71 633.11 728.26 647.48 728.24"/><polygon class="cls-53" points="659.16 765.37 656.32 726.68 630.03 721.61 630.03 762.91 659.16 765.37"/><polygon class="cls-54" points="630.03 721.61 616.98 730.44 615.63 772.07 630.03 764.07 630.03 721.61"/><polygon class="cls-55" points="605.91 1128.48 633.55 1128.48 628.37 762.06 609.2 768.81 605.91 1128.48"/><polygon class="cls-56" points="628.37 762.06 664.08 766.03 681.94 1128.48 628.37 1128.48 628.37 762.06"/><polygon class="cls-57" points="672.43 1128.48 659.16 765.37 658.19 765.37 668.98 1128.48 672.43 1128.48"/><polygon class="cls-58" points="658.19 765.37 656.77 765.21 664.87 1128.48 668.98 1128.48 658.19 765.37"/><polygon class="cls-59" points="656.77 1128.48 650.59 764.53 645.43 763.95 652.38 1128.48 656.77 1128.48"/><polygon class="cls-60" points="644.59 1128.48 638.02 763.13 634.4 762.73 638.95 1128.48 644.59 1128.48"/><polygon class="cls-61" points="655.15 1128.48 651.63 1128.48 645.43 763.95 648.53 764.3 655.15 1128.48"/><polygon class="cls-62" points="638.95 1128.48 634.4 762.73 636.58 762.97 643.2 1128.48 638.95 1128.48"/><path class="cls-25" d="M634.8,725.9a1.54,1.54,0,1,1-1.25-1.77A1.55,1.55,0,0,1,634.8,725.9Z"/><path class="cls-25" d="M636.32,726.12a1.54,1.54,0,1,1-1.25-1.78A1.54,1.54,0,0,1,636.32,726.12Z"/><path class="cls-25" d="M636.65,759.52a1.53,1.53,0,1,1-1.25-1.77A1.53,1.53,0,0,1,636.65,759.52Z"/><path class="cls-25" d="M649,745.29a1.53,1.53,0,1,1-1.25-1.78A1.53,1.53,0,0,1,649,745.29Z"/><path class="cls-26" d="M642.67,727a1.53,1.53,0,1,1-1.24-1.78A1.53,1.53,0,0,1,642.67,727Z"/><path class="cls-26" d="M653.34,746.06a1.53,1.53,0,1,1-1.25-1.78A1.54,1.54,0,0,1,653.34,746.06Z"/><path class="cls-26" d="M641.8,760.26a1.53,1.53,0,1,1-1.24-1.78A1.52,1.52,0,0,1,641.8,760.26Z"/><polygon class="cls-63" points="635.43 620.68 635.99 663.07 638.78 663.07 637.31 620.68 635.43 620.68"/><polygon class="cls-64" points="780.32 789.77 781.76 766.6 820.07 753.99 820.07 785.53 780.32 789.77"/><polygon class="cls-65" points="820.07 1130.96 812.95 782.7 775.57 790.8 764.11 1130.96 820.07 1130.96"/><path class="cls-66" d="M804.31,880.14l-28.39,4.66S749,905.51,741.53,945.69L726.16,1131h38Z"/><path class="cls-67" d="M779.67,884.8l24.54-4,.1-.63-28.39,4.66S749,905.51,741.53,945.69L726.16,1131h3.75l15.36-185.27C752.79,905.51,779.67,884.8,779.67,884.8Z"/><path class="cls-68" d="M801.33,880.14h3L812.09,1131h-51l3.47-179.22S769.06,900.24,801.33,880.14Z"/><path class="cls-69" d="M804.31,880.14,815.06,1131H764.11l3.47-179.22S772,900.24,804.31,880.14Z"/><polygon class="cls-70" points="812.95 782.7 848.81 787.79 871.23 1129.12 820.07 1130.96 812.95 782.7"/><polygon class="cls-71" points="820.07 753.99 836.19 757.49 838.09 786.27 820.07 783.71 820.07 753.99"/><path class="cls-25" d="M850.31,880.93a1.54,1.54,0,1,1-1.48-1.58A1.53,1.53,0,0,1,850.31,880.93Z"/><path class="cls-25" d="M854.61,1008.18a1.54,1.54,0,1,1-1.48-1.59A1.53,1.53,0,0,1,854.61,1008.18Z"/><path class="cls-25" d="M801.61,1008.18a1.54,1.54,0,1,1-1.48-1.59A1.53,1.53,0,0,1,801.61,1008.18Z"/><path class="cls-25" d="M826.21,1026.3a1.54,1.54,0,1,1-1.48-1.59A1.53,1.53,0,0,1,826.21,1026.3Z"/><path class="cls-25" d="M859.79,1068.39a1.54,1.54,0,1,1-1.48-1.58A1.53,1.53,0,0,1,859.79,1068.39Z"/><path class="cls-25" d="M854.76,923.66a1.54,1.54,0,1,1-1.48-1.59A1.53,1.53,0,0,1,854.76,923.66Z"/><path class="cls-25" d="M821.61,810.11a1.54,1.54,0,1,1-1.48-1.59A1.53,1.53,0,0,1,821.61,810.11Z"/><path class="cls-25" d="M798.84,811.64a1.54,1.54,0,1,1-1.48-1.58A1.53,1.53,0,0,1,798.84,811.64Z"/><path class="cls-25" d="M823.14,810.11a1.54,1.54,0,1,1-1.48-1.59A1.53,1.53,0,0,1,823.14,810.11Z"/><path class="cls-25" d="M797.3,811.64a1.53,1.53,0,1,1-1.48-1.58A1.53,1.53,0,0,1,797.3,811.64Z"/><path class="cls-26" d="M841.63,811.06a1.54,1.54,0,1,1-1.48-1.59A1.54,1.54,0,0,1,841.63,811.06Z"/><path class="cls-26" d="M830.61,768.65a1.53,1.53,0,1,1-1.48-1.59A1.54,1.54,0,0,1,830.61,768.65Z"/><path class="cls-26" d="M846.89,811.64a1.54,1.54,0,1,1-1.48-1.58A1.53,1.53,0,0,1,846.89,811.64Z"/><path class="cls-26" d="M786.61,813.18a1.54,1.54,0,1,1-1.48-1.59A1.53,1.53,0,0,1,786.61,813.18Z"/><path class="cls-26" d="M820.07,787.85a1.54,1.54,0,1,1-1.48-1.58A1.53,1.53,0,0,1,820.07,787.85Z"/><path class="cls-26" d="M810.21,846.29a1.54,1.54,0,1,1-1.48-1.59A1.54,1.54,0,0,1,810.21,846.29Z"/><path class="cls-26" d="M803.14,908.8a1.53,1.53,0,1,1-1.48-1.58A1.53,1.53,0,0,1,803.14,908.8Z"/><path class="cls-26" d="M797.3,1008.18a1.53,1.53,0,1,1-1.48-1.59A1.53,1.53,0,0,1,797.3,1008.18Z"/><path class="cls-26" d="M780.68,1095.1a1.54,1.54,0,1,1-1.49-1.59A1.53,1.53,0,0,1,780.68,1095.1Z"/><path class="cls-26" d="M774.55,1095.1a1.54,1.54,0,1,1-1.48-1.59A1.53,1.53,0,0,1,774.55,1095.1Z"/><path class="cls-26" d="M805.84,1091.83a1.54,1.54,0,1,1-1.48-1.59A1.54,1.54,0,0,1,805.84,1091.83Z"/><path class="cls-26" d="M824.67,1068.39a1.53,1.53,0,1,1-1.48-1.58A1.53,1.53,0,0,1,824.67,1068.39Z"/><path class="cls-26" d="M776.7,1068.39a1.54,1.54,0,1,1-1.48-1.58A1.53,1.53,0,0,1,776.7,1068.39Z"/><path class="cls-25" d="M845.35,880.93a1.53,1.53,0,1,1-1.48-1.58A1.53,1.53,0,0,1,845.35,880.93Z"/><path class="cls-25" d="M853.23,923.66a1.54,1.54,0,1,1-1.48-1.59A1.53,1.53,0,0,1,853.23,923.66Z"/><path class="cls-25" d="M854.61,968.77a1.54,1.54,0,1,1-1.48-1.58A1.53,1.53,0,0,1,854.61,968.77Z"/><path class="cls-25" d="M823.14,967.24a1.54,1.54,0,1,1-1.48-1.59A1.54,1.54,0,0,1,823.14,967.24Z"/><path class="cls-25" d="M826.21,967.24a1.54,1.54,0,1,1-1.48-1.59A1.54,1.54,0,0,1,826.21,967.24Z"/><path class="cls-25" d="M861.33,1050.63a1.54,1.54,0,1,1-1.48-1.59A1.54,1.54,0,0,1,861.33,1050.63Z"/><path class="cls-25" d="M803.14,967.24a1.53,1.53,0,1,1-1.48-1.59A1.54,1.54,0,0,1,803.14,967.24Z"/><path class="cls-25" d="M839.62,967.24a1.53,1.53,0,1,1-1.48-1.59A1.54,1.54,0,0,1,839.62,967.24Z"/><path class="cls-25" d="M788.14,967.24a1.53,1.53,0,1,1-1.48-1.59A1.54,1.54,0,0,1,788.14,967.24Z"/><path class="cls-25" d="M840.1,924.79a1.54,1.54,0,1,1-1.48-1.59A1.54,1.54,0,0,1,840.1,924.79Z"/><path class="cls-25" d="M788.14,924.79a1.53,1.53,0,1,1-1.48-1.59A1.54,1.54,0,0,1,788.14,924.79Z"/><path class="cls-26" d="M829.46,880.93a1.54,1.54,0,1,1-1.48-1.58A1.53,1.53,0,0,1,829.46,880.93Z"/><polygon class="cls-72" points="812.95 782.7 816.4 783.19 826.78 1130.72 820.07 1130.96 812.95 782.7"/><polygon class="cls-73" points="812.95 782.7 810.21 783.19 817.16 1130.95 820.07 1130.96 812.95 782.7"/><polygon class="cls-74" points="845.35 787.3 867.21 1128.8 871.23 1129.12 848.81 787.79 845.35 787.3"/><polygon class="cls-75" points="835.97 785.97 834.01 734.55 835.97 736.12 838.09 786.27 835.97 785.97"/><polygon class="cls-76" points="834.01 734.55 832.33 736.12 833.17 785.57 835.97 785.97 834.01 734.55"/><polygon class="cls-77" points="820.07 783.71 819.87 730.05 821.61 731.47 823.14 784.15 820.07 783.71"/><polygon class="cls-78" points="819.87 730.05 817 731.93 817 783.27 820.07 783.71 819.87 730.05"/><polygon class="cls-79" points="415.44 798.52 411.05 739 390.05 751.15 353 733.8 348.39 803.08 415.44 798.52"/><polygon class="cls-80" points="297.89 1127.54 333.81 955.51 327.18 823.64 390.05 762.71 390.05 1129.33 297.89 1127.54"/><polygon class="cls-81" points="452.46 1127.9 390.05 1129.33 390.05 762.71 431.42 821.05 428.49 958.93 452.46 1127.9"/><polygon class="cls-82" points="411.05 739 353 733.8 390.05 762.71 411.05 739"/><polygon class="cls-83" points="390.05 762.71 353 733.8 348.39 803.08 390.05 762.71"/><polygon class="cls-84" points="362.79 734.68 386.62 695.76 404.23 738.39 362.79 734.68"/><polygon class="cls-85" points="386.62 695.76 390.05 737.12 362.79 734.68 386.62 695.76"/><polygon class="cls-86" points="297.89 1127.54 391.55 946.02 431.42 821.05 390.05 960.23 300.61 1127.54 297.89 1127.54"/><polygon class="cls-87" points="452.46 1127.9 391.55 946.02 327.18 823.64 389.81 950.08 448.92 1127.83 452.46 1127.9"/><polygon class="cls-88" points="390.05 762.71 387.32 1129.26 392.52 1129.26 390.05 762.71"/><polygon class="cls-89" points="333.81 955.51 389.81 950.08 428.56 960.19 428.49 958.93 391.3 948.14 333.88 954.16 333.81 955.51"/><polygon class="cls-90" points="393.21 950.97 452.46 1127.9 428.56 960.19 393.21 950.97"/><polygon class="cls-91" points="389.81 950.08 333.88 954.16 297.89 1127.54 389.81 950.08"/><path class="cls-25" d="M337.84,824.86a1.53,1.53,0,1,1-1.63-1.43A1.53,1.53,0,0,1,337.84,824.86Z"/><path class="cls-25" d="M428.52,826.84a1.53,1.53,0,1,1-1.63-1.43A1.53,1.53,0,0,1,428.52,826.84Z"/><path class="cls-25" d="M409.36,855.39a1.53,1.53,0,1,1-1.63-1.43A1.54,1.54,0,0,1,409.36,855.39Z"/><path class="cls-25" d="M355.82,996.91a1.53,1.53,0,1,1-1.63-1.43A1.54,1.54,0,0,1,355.82,996.91Z"/><path class="cls-25" d="M363.48,1062.09a1.53,1.53,0,1,1-3.06.2,1.55,1.55,0,0,1,1.43-1.63A1.52,1.52,0,0,1,363.48,1062.09Z"/><path class="cls-25" d="M350.92,997.4a1.53,1.53,0,1,1-1.63-1.43A1.53,1.53,0,0,1,350.92,997.4Z"/><path class="cls-25" d="M421.26,910.18a1.54,1.54,0,1,1-1.64-1.43A1.55,1.55,0,0,1,421.26,910.18Z"/><path class="cls-25" d="M422.79,825.31a1.53,1.53,0,1,1-1.63-1.43A1.53,1.53,0,0,1,422.79,825.31Z"/><path class="cls-25" d="M407.83,759a1.53,1.53,0,1,1-1.63-1.43A1.55,1.55,0,0,1,407.83,759Z"/><path class="cls-25" d="M381,741.35a1.53,1.53,0,1,1-1.63-1.43A1.53,1.53,0,0,1,381,741.35Z"/><path class="cls-25" d="M359.4,764.15a1.53,1.53,0,0,1-3.06.2,1.53,1.53,0,1,1,3.06-.2Z"/><path class="cls-25" d="M421.26,824.86a1.54,1.54,0,1,1-1.64-1.43A1.55,1.55,0,0,1,421.26,824.86Z"/><path class="cls-26" d="M339.37,824.76a1.53,1.53,0,1,1-1.63-1.43A1.53,1.53,0,0,1,339.37,824.76Z"/><path class="cls-26" d="M340.91,824.66a1.54,1.54,0,1,1-1.64-1.43A1.55,1.55,0,0,1,340.91,824.66Z"/><path class="cls-26" d="M348.89,824.13a1.53,1.53,0,1,1-1.63-1.43A1.53,1.53,0,0,1,348.89,824.13Z"/><path class="cls-26" d="M407.83,885.07a1.55,1.55,0,0,1-1.43,1.63,1.53,1.53,0,1,1,1.43-1.63Z"/><path class="cls-26" d="M402.58,1054.64a1.53,1.53,0,1,1-3.06.2,1.55,1.55,0,0,1,1.43-1.63A1.52,1.52,0,0,1,402.58,1054.64Z"/><path class="cls-26" d="M431.81,1090.49a1.53,1.53,0,1,1-1.63-1.43A1.53,1.53,0,0,1,431.81,1090.49Z"/><path class="cls-26" d="M335.19,1092.4a1.53,1.53,0,1,1-1.63-1.43A1.53,1.53,0,0,1,335.19,1092.4Z"/><path class="cls-26" d="M426.22,997.4a1.55,1.55,0,0,1-1.43,1.63,1.53,1.53,0,1,1,1.43-1.63Z"/><path class="cls-26" d="M369,1061.94a1.53,1.53,0,1,1-1.63-1.43A1.54,1.54,0,0,1,369,1061.94Z"/><path class="cls-26" d="M354.53,923.1a1.55,1.55,0,0,1-1.43,1.63,1.53,1.53,0,1,1,1.43-1.63Z"/><path class="cls-26" d="M349.93,814.09a1.54,1.54,0,1,1-1.64-1.43A1.53,1.53,0,0,1,349.93,814.09Z"/><path class="cls-26" d="M377.88,822.22a1.53,1.53,0,1,1-1.63-1.43A1.53,1.53,0,0,1,377.88,822.22Z"/><path class="cls-26" d="M414.38,824.13a1.53,1.53,0,1,1-1.63-1.43A1.53,1.53,0,0,1,414.38,824.13Z"/><path class="cls-26" d="M362.47,783.09a1.54,1.54,0,1,1-1.64-1.43A1.54,1.54,0,0,1,362.47,783.09Z"/><path class="cls-26" d="M370.76,760.53a1.54,1.54,0,1,1-1.64-1.43A1.54,1.54,0,0,1,370.76,760.53Z"/><path class="cls-26" d="M402.15,762.61a1.53,1.53,0,1,1-1.63-1.43A1.53,1.53,0,0,1,402.15,762.61Z"/><path class="cls-26" d="M385,863.6a1.53,1.53,0,1,1-1.63-1.43A1.53,1.53,0,0,1,385,863.6Z"/><path class="cls-26" d="M381,863.6a1.53,1.53,0,1,1-3.06.2,1.53,1.53,0,0,1,3.06-.2Z"/><path class="cls-26" d="M338.86,863.6a1.53,1.53,0,1,1-1.63-1.43A1.55,1.55,0,0,1,338.86,863.6Z"/><path class="cls-26" d="M377.88,797.26a1.53,1.53,0,1,1-1.63-1.43A1.54,1.54,0,0,1,377.88,797.26Z"/><polygon class="cls-92" points="746.02 761.13 739.95 734.81 733.09 732.8 732.09 758.34 746.02 761.13"/><polygon class="cls-93" points="733.09 732.8 684.67 739.44 676.71 765.5 732.09 758.34 733.09 732.8"/><polygon class="cls-94" points="732.09 1133.88 729.03 757.72 750.96 762.12 763.01 1133.33 732.09 1133.88"/><polygon class="cls-95" points="729.03 757.72 672.43 766.13 672.43 1132.55 732.09 1133.88 729.03 757.72"/><polygon class="cls-96" points="739.05 734.55 733.09 691.62 734.8 733.3 739.05 734.55"/><polygon class="cls-97" points="733.09 691.62 731.08 694.34 727.33 729.64 689.75 736.12 690.95 700.33 689.35 699.58 684.67 739.44 734.8 733.3 733.09 691.62"/><polygon class="cls-98" points="690.95 700.33 692.97 735.56 689.75 736.12 690.95 700.33"/><path class="cls-25" d="M722,853a1.54,1.54,0,1,1-1.48-1.59A1.53,1.53,0,0,1,722,853Z"/><path class="cls-25" d="M736.16,863.56a1.54,1.54,0,1,1-1.48-1.59A1.54,1.54,0,0,1,736.16,863.56Z"/><path class="cls-25" d="M747.55,817a1.53,1.53,0,1,1-1.48-1.58A1.53,1.53,0,0,1,747.55,817Z"/><path class="cls-25" d="M722.39,770.18a1.54,1.54,0,1,1-1.49-1.59A1.53,1.53,0,0,1,722.39,770.18Z"/><path class="cls-25" d="M717,853a1.54,1.54,0,1,1-1.48-1.59A1.53,1.53,0,0,1,717,853Z"/><path class="cls-25" d="M686.82,948.19a1.53,1.53,0,1,1-1.48-1.59A1.53,1.53,0,0,1,686.82,948.19Z"/><path class="cls-25" d="M703.8,948.19a1.54,1.54,0,1,1-1.48-1.59A1.53,1.53,0,0,1,703.8,948.19Z"/><path class="cls-25" d="M705.58,1028.78a1.53,1.53,0,1,1-1.48-1.58A1.53,1.53,0,0,1,705.58,1028.78Z"/><path class="cls-25" d="M722.39,921a1.54,1.54,0,1,1-1.49-1.59A1.53,1.53,0,0,1,722.39,921Z"/><path class="cls-25" d="M736.16,784.78a1.54,1.54,0,1,1-1.48-1.59A1.54,1.54,0,0,1,736.16,784.78Z"/><path class="cls-25" d="M740.51,784.78a1.53,1.53,0,1,1-1.48-1.59A1.52,1.52,0,0,1,740.51,784.78Z"/><path class="cls-25" d="M720.85,770.18a1.54,1.54,0,1,1-1.48-1.59A1.53,1.53,0,0,1,720.85,770.18Z"/><path class="cls-25" d="M710.83,770.81a1.53,1.53,0,1,1-1.48-1.59A1.53,1.53,0,0,1,710.83,770.81Z"/><path class="cls-25" d="M684.1,773.25a1.54,1.54,0,1,1-1.48-1.59A1.53,1.53,0,0,1,684.1,773.25Z"/><path class="cls-26" d="M701.1,853a1.53,1.53,0,1,1-1.48-1.59A1.53,1.53,0,0,1,701.1,853Z"/><path class="cls-26" d="M686.82,853a1.53,1.53,0,1,1-1.48-1.59A1.53,1.53,0,0,1,686.82,853Z"/><path class="cls-26" d="M740.59,863.57a1.54,1.54,0,1,1-1.48-1.59A1.53,1.53,0,0,1,740.59,863.57Z"/><path class="cls-26" d="M742.43,949.07a1.54,1.54,0,1,1-1.48-1.59A1.54,1.54,0,0,1,742.43,949.07Z"/><path class="cls-26" d="M753.64,989.35a1.54,1.54,0,1,1-1.49-1.59A1.53,1.53,0,0,1,753.64,989.35Z"/><path class="cls-26" d="M749.59,908.8a1.54,1.54,0,1,1-1.48-1.58A1.53,1.53,0,0,1,749.59,908.8Z"/><path class="cls-26" d="M747.55,908.8a1.53,1.53,0,1,1-1.48-1.58A1.53,1.53,0,0,1,747.55,908.8Z"/><path class="cls-26" d="M742.43,908.8a1.54,1.54,0,1,1-1.48-1.58A1.53,1.53,0,0,1,742.43,908.8Z"/><path class="cls-26" d="M720.85,921a1.54,1.54,0,1,1-1.48-1.59A1.53,1.53,0,0,1,720.85,921Z"/><path class="cls-26" d="M712.37,801.06a1.54,1.54,0,1,1-1.48-1.58A1.53,1.53,0,0,1,712.37,801.06Z"/><polygon class="cls-99" points="260.67 784.33 251.25 790.78 249.2 819.99 260.67 813.49 260.67 784.33"/><polygon class="cls-100" points="315.45 818.58 314.56 792.54 260.67 784.33 260.67 813.49 315.45 818.58"/><polygon class="cls-101" points="262.13 812.66 247.69 820.86 239.5 844.27 263.88 835.17 262.13 812.66"/><polygon class="cls-102" points="251.25 1127.69 254.86 834.23 234.84 847.32 224.15 1128.48 251.25 1127.69"/><polygon class="cls-103" points="343.27 1127.98 251.26 1127.69 251.59 1101.14 251.6 1099.79 252.06 1061.61 252.08 1060.22 252.47 1029.01 252.48 1027.63 252.65 1013.95 252.67 1012.48 252.83 998.87 252.85 997.5 253.03 983.8 253.05 982.44 253.22 968.72 253.24 967.37 253.4 952.93 253.42 952.29 253.8 920.8 253.82 919.44 254 904.64 254.02 903.29 254.87 834.24 334.2 842.43 336.24 906.36 336.26 907 336.75 922.56 336.77 923.2 337.78 954.8 337.81 956.08 338.25 969.89 338.29 971.17 338.73 984.99 338.76 986.27 339.2 1000.08 339.24 1001.36 339.64 1013.64 339.74 1016.44 340.18 1030.25 340.21 1031.54 343.27 1127.98"/><polygon class="cls-104" points="322.49 841.23 316.88 818.54 262.13 812.66 263.88 835.17 322.49 841.23"/><polygon class="cls-105" points="251.25 790.78 271.05 772.53 260.67 784.33 251.25 790.78"/><polygon class="cls-106" points="314.56 792.54 292.31 775.92 271.05 772.53 260.67 784.33 314.56 792.54"/><polygon class="cls-107" points="276.95 773.48 276.95 675.52 277.88 675.52 282.13 774.3 276.95 773.48"/><polygon class="cls-108" points="276.95 675.52 276.37 675.52 274.45 773.08 276.95 773.48 276.95 675.52"/><polygon class="cls-109" points="253.97 907.23 336.5 914.72 336.5 917.34 253.89 913.53 253.97 907.23"/><polygon class="cls-110" points="252.43 1031.94 340.34 1035.72 340.34 1040.83 252.35 1038.24 252.43 1031.94"/><polygon class="cls-111" points="253.97 907.23 232.37 912.28 232.37 917.34 253.89 913.53 253.97 907.23"/><polygon class="cls-112" points="252.43 1031.94 227.64 1036.63 227.51 1040.01 252.35 1038.24 252.43 1031.94"/><polygon class="cls-113" points="334.84 862.41 254.36 855.49 254.36 856.88 334.88 863.7 334.84 862.41"/><polygon class="cls-114" points="336.77 923.2 253.8 920.8 253.82 919.44 336.75 922.56 336.77 923.2"/><polygon class="cls-115" points="336.26 907 254 904.64 254.02 903.29 336.24 906.36 336.26 907"/><polygon class="cls-116" points="337.81 956.08 253.4 952.93 253.42 952.29 337.78 954.8 337.81 956.08"/><polygon class="cls-117" points="338.29 971.17 253.22 968.72 253.24 967.37 338.25 969.89 338.29 971.17"/><polygon class="cls-118" points="338.76 986.27 253.03 983.8 253.05 982.44 338.73 984.99 338.76 986.27"/><polygon class="cls-119" points="339.24 1001.36 252.83 998.87 252.85 997.5 339.2 1000.08 339.24 1001.36"/><polygon class="cls-120" points="340.82 1064.16 252.06 1061.61 252.08 1060.22 340.73 1062.88 340.82 1064.16"/><polygon class="cls-121" points="342.43 1103.77 251.59 1101.14 251.6 1099.79 342.34 1102.48 342.43 1103.77"/><polygon class="cls-122" points="339.74 1016.44 252.65 1013.95 252.67 1012.48 339.64 1013.64 339.74 1016.44"/><polygon class="cls-123" points="340.21 1031.54 252.47 1029.01 252.48 1027.63 340.18 1030.25 340.21 1031.54"/><polygon class="cls-124" points="335.77 891.75 253.97 887.42 253.94 888.18 335.79 892.49 335.77 891.75"/><polygon class="cls-125" points="335.35 878.49 254.36 874.03 254.37 874.58 335.39 879.03 335.35 878.49"/><path class="cls-25" d="M259.73,947.56A1.54,1.54,0,1,1,258.2,946,1.53,1.53,0,0,1,259.73,947.56Z"/><path class="cls-25" d="M262.8,947.56a1.54,1.54,0,1,1-1.53-1.54A1.54,1.54,0,0,1,262.8,947.56Z"/><circle class="cls-25" cx="269.79" cy="893.49" r="1.53"/><path class="cls-25" d="M328.71,856.36a1.54,1.54,0,1,1-1.53-1.53A1.53,1.53,0,0,1,328.71,856.36Z"/><path class="cls-25" d="M326.71,856.36a1.54,1.54,0,1,1-1.54-1.53A1.53,1.53,0,0,1,326.71,856.36Z"/><circle class="cls-25" cx="261.27" cy="893.48" r="1.53"/><path class="cls-25" d="M268.25,964.73a1.53,1.53,0,1,1-1.53-1.54A1.53,1.53,0,0,1,268.25,964.73Z"/><path class="cls-25" d="M283.35,948.55a1.54,1.54,0,1,1-1.53-1.53A1.52,1.52,0,0,1,283.35,948.55Z"/><path class="cls-26" d="M284.89,948.55a1.54,1.54,0,1,1-1.54-1.53A1.53,1.53,0,0,1,284.89,948.55Z"/><path class="cls-26" d="M261.27,893.49a1.54,1.54,0,1,1-1.54-1.53A1.54,1.54,0,0,1,261.27,893.49Z"/><path class="cls-26" d="M319.57,855.49A1.54,1.54,0,1,1,318,854,1.53,1.53,0,0,1,319.57,855.49Z"/><path class="cls-26" d="M330.8,1006.59a1.54,1.54,0,1,1-1.54-1.53A1.54,1.54,0,0,1,330.8,1006.59Z"/><path class="cls-26" d="M259.73,964.73a1.54,1.54,0,1,1-1.53-1.54A1.53,1.53,0,0,1,259.73,964.73Z"/><circle class="cls-26" cx="322.45" cy="951.62" r="1.53"/><circle class="cls-26" cx="257.62" cy="1008.13" r="1.53"/><polygon class="cls-126" points="281.82 837.02 292.31 828.46 291.27 1129.31 282.18 1127.54 281.82 837.02"/><polygon class="cls-127" points="292.31 828.46 305.44 829.78 309.18 1127.31 291.27 1129.31 292.31 828.46"/><polygon class="cls-128" points="292.06 900.73 306.34 901.48 306.21 905.78 292.05 905.73 292.06 900.73"/><polygon class="cls-129" points="291.66 1016.44 307.79 1016.44 307.79 1019.99 291.65 1019.99 291.66 1016.44"/><polygon class="cls-130" points="281.82 837.02 275.7 837.02 272.27 1126.57 282.18 1127.54 281.82 837.02"/><path class="cls-131" d="M906.15,898.81v65.62l124.58,21.71.36-10.64S960.55,904,906.15,898.81Z"/><path class="cls-132" d="M843.49,980.52V967.17s27.2-73.34,62.66-100.48v32.12S878.2,923.22,843.49,980.52Z"/><path class="cls-133" d="M906.15,898.81v65.62l-62.66,34.79v-18.7S872.21,925.51,906.15,898.81Z"/><path class="cls-134" d="M903.15,961.43s70.12-6.63,139.8,30.84l.45,27.26s-46.05-37.34-140.25-31.47Z"/><path class="cls-135" d="M903.15,988.06v142h142.64l-2.39-113.41S981.54,977.09,903.15,988.06Z"/><polygon class="cls-136" points="903.15 961.43 839.72 1014.99 841.02 1130.11 903.15 1130.11 903.15 961.43"/><path class="cls-137" d="M903.15,961.43s-27.95,7.69-65.06,37.79l1.63,15.77s35.71-20.37,63.43-26.93Z"/><path class="cls-138" d="M906.15,866.69v32.12s75,26.73,124.94,76.69V959.31S989.25,904.61,906.15,866.69Z"/><path class="cls-25" d="M928.26,914.14a1.53,1.53,0,1,1-1.48-1.59A1.54,1.54,0,0,1,928.26,914.14Z"/><path class="cls-25" d="M976,942.53a1.54,1.54,0,1,1-1.48-1.59A1.54,1.54,0,0,1,976,942.53Z"/><path class="cls-26" d="M989.87,1020a1.53,1.53,0,1,1-1.48-1.59A1.53,1.53,0,0,1,989.87,1020Z"/><path class="cls-26" d="M892,947.53A1.54,1.54,0,1,1,890.5,946,1.53,1.53,0,0,1,892,947.53Z"/><path class="cls-26" d="M1000.36,956.88a1.54,1.54,0,1,1-1.48-1.58A1.53,1.53,0,0,1,1000.36,956.88Z"/><path class="cls-26" d="M890.45,947.53A1.54,1.54,0,1,1,889,946,1.53,1.53,0,0,1,890.45,947.53Z"/><path class="cls-26" d="M890.45,1114.93a1.54,1.54,0,1,1-1.48-1.59A1.53,1.53,0,0,1,890.45,1114.93Z"/><path class="cls-26" d="M892,1114.93a1.54,1.54,0,1,1-1.48-1.59A1.53,1.53,0,0,1,892,1114.93Z"/><path class="cls-26" d="M848.63,1114.93a1.54,1.54,0,1,1-1.48-1.59A1.53,1.53,0,0,1,848.63,1114.93Z"/><path class="cls-26" d="M996.59,1091.83a1.53,1.53,0,1,1-1.48-1.59A1.53,1.53,0,0,1,996.59,1091.83Z"/><path class="cls-26" d="M1034.39,1119.42a1.53,1.53,0,1,1-1.48-1.59A1.53,1.53,0,0,1,1034.39,1119.42Z"/><path class="cls-26" d="M1039.06,1091.83a1.54,1.54,0,1,1-1.48-1.59A1.54,1.54,0,0,1,1039.06,1091.83Z"/><path class="cls-26" d="M992.49,1091.83a1.53,1.53,0,1,1-1.48-1.59A1.53,1.53,0,0,1,992.49,1091.83Z"/><path class="cls-26" d="M960.57,1091.83a1.54,1.54,0,1,1-1.48-1.59A1.54,1.54,0,0,1,960.57,1091.83Z"/><path class="cls-26" d="M861.33,1091.83a1.54,1.54,0,1,1-1.48-1.59A1.54,1.54,0,0,1,861.33,1091.83Z"/><path class="cls-26" d="M916.71,1020a1.54,1.54,0,1,1-1.48-1.59A1.53,1.53,0,0,1,916.71,1020Z"/><path class="cls-26" d="M918.24,1020a1.53,1.53,0,1,1-3.06-.11,1.53,1.53,0,1,1,3.06.11Z"/><path class="cls-26" d="M888.91,1023.55a1.53,1.53,0,1,1-1.48-1.58A1.53,1.53,0,0,1,888.91,1023.55Z"/><path class="cls-25" d="M936.51,1009.71a1.54,1.54,0,1,1-1.48-1.58A1.53,1.53,0,0,1,936.51,1009.71Z"/><path class="cls-25" d="M859.79,1035.37a1.54,1.54,0,1,1-1.48-1.58A1.53,1.53,0,0,1,859.79,1035.37Z"/><path class="cls-25" d="M1026.34,1020a1.54,1.54,0,1,1-1.48-1.59A1.53,1.53,0,0,1,1026.34,1020Z"/><path class="cls-25" d="M1026.34,1050.32a1.54,1.54,0,1,1-1.48-1.59A1.53,1.53,0,0,1,1026.34,1050.32Z"/><path class="cls-25" d="M1018.74,1020a1.54,1.54,0,1,1-1.48-1.59A1.53,1.53,0,0,1,1018.74,1020Z"/><path class="cls-25" d="M929.8,1052.16a1.54,1.54,0,1,1-1.48-1.58A1.53,1.53,0,0,1,929.8,1052.16Z"/><path class="cls-25" d="M995.06,1052.16a1.54,1.54,0,1,1-1.48-1.58A1.53,1.53,0,0,1,995.06,1052.16Z"/><path class="cls-25" d="M1039.06,1052.16a1.54,1.54,0,1,1-1.48-1.58A1.53,1.53,0,0,1,1039.06,1052.16Z"/><path class="cls-25" d="M1025.31,1091.83a1.54,1.54,0,1,1-1.48-1.59A1.54,1.54,0,0,1,1025.31,1091.83Z"/><path class="cls-25" d="M887.38,1082.93a1.54,1.54,0,1,1-1.48-1.58A1.55,1.55,0,0,1,887.38,1082.93Z"/><path class="cls-25" d="M888.91,1082.93a1.53,1.53,0,1,1-3.06-.1,1.53,1.53,0,0,1,3.06.1Z"/><path class="cls-25" d="M897.38,1091.83a1.54,1.54,0,1,1-1.48-1.59A1.54,1.54,0,0,1,897.38,1091.83Z"/><path class="cls-25" d="M1023.27,1091.83a1.54,1.54,0,1,1-1.48-1.59A1.54,1.54,0,0,1,1023.27,1091.83Z"/><path class="cls-25" d="M1015.75,1091.83a1.53,1.53,0,1,1-3.06-.11,1.53,1.53,0,1,1,3.06.11Z"/><path class="cls-25" d="M1006.37,1020a1.53,1.53,0,0,1-1.58,1.48,1.54,1.54,0,1,1,1.58-1.48Z"/><path class="cls-25" d="M1027.87,1020a1.53,1.53,0,1,1-1.48-1.59A1.53,1.53,0,0,1,1027.87,1020Z"/><path class="cls-25" d="M1027.87,1050.32a1.53,1.53,0,1,1-1.48-1.59A1.53,1.53,0,0,1,1027.87,1050.32Z"/><path class="cls-25" d="M926.73,914.14a1.54,1.54,0,1,1-1.48-1.59A1.54,1.54,0,0,1,926.73,914.14Z"/><path class="cls-25" d="M916.71,914.77a1.54,1.54,0,1,1-1.48-1.59A1.54,1.54,0,0,1,916.71,914.77Z"/><path class="cls-26" d="M918.24,945a1.53,1.53,0,1,1-3.06-.11,1.53,1.53,0,1,1,3.06.11Z"/><path class="cls-26" d="M970.15,942.53a1.53,1.53,0,1,1-1.48-1.59A1.52,1.52,0,0,1,970.15,942.53Z"/><polygon class="cls-139" points="906.15 898.81 888.91 913.18 888.04 885 906.15 861.98 906.15 898.81"/><polygon class="cls-140" points="906.15 861.98 930.55 878.89 933.21 910.23 906.15 898.81 906.15 861.98"/><polygon class="cls-141" points="216.85 755.61 210.78 729.29 203.92 727.29 202.92 752.82 216.85 755.61"/><polygon class="cls-142" points="203.92 727.29 155.5 733.92 147.54 759.98 202.92 752.82 203.92 727.29"/><polygon class="cls-143" points="202.92 1128.36 199.86 752.21 221.79 756.6 233.84 1127.81 202.92 1128.36"/><polygon class="cls-144" points="199.86 752.21 143.26 760.61 143.26 1127.03 202.92 1128.36 199.86 752.21"/><polygon class="cls-145" points="143.26 917.34 200.62 845.34 226.68 907.23 230.73 1031.94 202.92 1128.36 143.26 1027.39 143.26 917.34"/><polygon class="cls-146" points="200.62 845.34 202.92 1128.36 143.26 1027.39 143.26 917.34 200.62 845.34"/><polygon class="cls-147" points="155.5 733.92 167.18 721.96 196.47 716.44 203.92 727.29 155.5 733.92"/><polygon class="cls-148" points="210.78 729.29 196.47 716.44 203.92 727.29 210.78 729.29"/><polygon class="cls-149" points="200.2 794.03 224.98 854.88 225.69 876.74 200.42 821.05 200.2 794.03"/><polygon class="cls-150" points="200.2 794.03 143.26 871 143.26 887.42 200.42 821.05 200.2 794.03"/><polygon class="cls-151" points="143.26 917.34 143.26 925 200.7 854.88 226.81 911.13 226.68 907.23 200.62 845.34 143.26 917.34"/><polygon class="cls-152" points="143.26 1027.39 143.26 1023.5 203.8 1117.2 230.64 1029.22 230.73 1035.43 202.92 1128.36 143.26 1027.39"/><polygon class="cls-153" points="224.98 854.88 225.08 857.91 200.2 799.29 143.26 874.03 143.26 871 200.2 794.03 224.98 854.88"/><path class="cls-25" d="M157.22,768.56a1.53,1.53,0,1,1-1.72-1.32A1.53,1.53,0,0,1,157.22,768.56Z"/><path class="cls-25" d="M158.73,768.31A1.53,1.53,0,1,1,157,767,1.53,1.53,0,0,1,158.73,768.31Z"/><path class="cls-25" d="M209.87,796.71a1.53,1.53,0,1,1-1.72-1.32A1.53,1.53,0,0,1,209.87,796.71Z"/><path class="cls-25" d="M179.81,764.8a1.53,1.53,0,1,1-1.72-1.32A1.53,1.53,0,0,1,179.81,764.8Z"/><path class="cls-25" d="M219.91,770.32a1.54,1.54,0,1,1-1.72-1.32A1.53,1.53,0,0,1,219.91,770.32Z"/><path class="cls-25" d="M221.44,798.25a1.53,1.53,0,1,1-1.72-1.33A1.53,1.53,0,0,1,221.44,798.25Z"/><path class="cls-25" d="M223,923a1.54,1.54,0,1,1-1.72-1.32A1.54,1.54,0,0,1,223,923Z"/><path class="cls-26" d="M165.07,767.25a1.54,1.54,0,1,1-1.73-1.32A1.54,1.54,0,0,1,165.07,767.25Z"/><path class="cls-26" d="M175.44,765.53a1.53,1.53,0,1,1-1.72-1.33A1.53,1.53,0,0,1,175.44,765.53Z"/><path class="cls-26" d="M189.51,763.18a1.53,1.53,0,1,1-1.72-1.32A1.53,1.53,0,0,1,189.51,763.18Z"/><path class="cls-25" d="M177.13,909.25a1.53,1.53,0,1,1-1.62-1.45A1.54,1.54,0,0,1,177.13,909.25Z"/><path class="cls-25" d="M213,963.11a1.53,1.53,0,1,1-1.62-1.45A1.52,1.52,0,0,1,213,963.11Z"/><path class="cls-25" d="M178.15,1015.55a1.53,1.53,0,1,1-1.62-1.44A1.53,1.53,0,0,1,178.15,1015.55Z"/><path class="cls-25" d="M172.72,948.46A1.53,1.53,0,1,1,171.1,947,1.53,1.53,0,0,1,172.72,948.46Z"/><path class="cls-26" d="M172.72,909.65a1.53,1.53,0,1,1-1.62-1.44A1.53,1.53,0,0,1,172.72,909.65Z"/><path class="cls-26" d="M186.92,908.35a1.53,1.53,0,1,1-1.62-1.45A1.54,1.54,0,0,1,186.92,908.35Z"/><path class="cls-25" d="M149.44,1062.19a1.54,1.54,0,1,1-3.07,0,1.54,1.54,0,0,1,3.07,0Z"/><path class="cls-25" d="M155.9,1062.19a1.54,1.54,0,1,1-3.07,0,1.54,1.54,0,0,1,3.07,0Z"/><path class="cls-25" d="M157.43,1062.19a1.54,1.54,0,1,1-1.54-1.53A1.53,1.53,0,0,1,157.43,1062.19Z"/><path class="cls-26" d="M154.36,1016.18a1.54,1.54,0,1,1-1.54-1.53A1.53,1.53,0,0,1,154.36,1016.18Z"/><path class="cls-26" d="M168.61,1015.64a1.54,1.54,0,1,1-1.54-1.53A1.53,1.53,0,0,1,168.61,1015.64Z"/><path class="cls-26" d="M171.68,1015.64a1.54,1.54,0,1,1-1.54-1.53A1.53,1.53,0,0,1,171.68,1015.64Z"/><path class="cls-26" d="M188.53,1015.64a1.54,1.54,0,1,1-1.54-1.53A1.53,1.53,0,0,1,188.53,1015.64Z"/><path class="cls-26" d="M149.44,1095a1.54,1.54,0,1,1-1.54-1.53A1.54,1.54,0,0,1,149.44,1095Z"/><path class="cls-26" d="M223,1034.16a1.54,1.54,0,1,1-1.54-1.53A1.53,1.53,0,0,1,223,1034.16Z"/><path class="cls-26" d="M223,1020a1.54,1.54,0,1,1-1.54-1.53A1.53,1.53,0,0,1,223,1020Z"/><path class="cls-26" d="M158.74,954.1a1.53,1.53,0,1,1-1.61-1.45A1.53,1.53,0,0,1,158.74,954.1Z"/><path class="cls-26" d="M205.44,768.79a1.53,1.53,0,1,1-1.72-1.32A1.53,1.53,0,0,1,205.44,768.79Z"/><path class="cls-25" d="M155.66,799.53a1.55,1.55,0,0,1-1.35,1.71,1.54,1.54,0,1,1,1.35-1.71Z"/><path class="cls-25" d="M157.17,799.3a1.54,1.54,0,1,1-1.7-1.34A1.53,1.53,0,0,1,157.17,799.3Z"/><path class="cls-25" d="M160.27,828.94a1.54,1.54,0,1,1-1.7-1.34A1.53,1.53,0,0,1,160.27,828.94Z"/><path class="cls-25" d="M151.83,829.82a1.54,1.54,0,1,1-1.71-1.35A1.54,1.54,0,0,1,151.83,829.82Z"/><path class="cls-26" d="M162,828.94a1.53,1.53,0,1,1-1.7-1.34A1.53,1.53,0,0,1,162,828.94Z"/><path class="cls-26" d="M188,794.57a1.54,1.54,0,1,1-1.7-1.34A1.53,1.53,0,0,1,188,794.57Z"/><path class="cls-26" d="M221.44,830.47a1.53,1.53,0,1,1-1.7-1.34A1.53,1.53,0,0,1,221.44,830.47Z"/><path class="cls-26" d="M173.37,781.48a1.54,1.54,0,1,1-1.71-1.35A1.53,1.53,0,0,1,173.37,781.48Z"/><path class="cls-154" d="M147.9,912.42V892.31s-20.5-28.88-64.21-28.79c-40.93.08-59.08,22.4-59.08,22.4l-5.13,44.4s26.94-30.44,65.83-28.42C127.37,904.08,147.9,912.42,147.9,912.42Z"/><path class="cls-155" d="M22.44,898s57.8-43.18,130.42-1l8.21,237.73-141.59-.27Z"/><polygon class="cls-156" points="24.61 885.92 16.15 892.47 14.16 909.09 22.44 903.39 24.61 885.92"/><polygon class="cls-157" points="23.28 897.4 9.44 906.93 0 1134.43 19.48 1134.43 23.28 897.4"/><path class="cls-25" d="M146.68,918.39a1.54,1.54,0,1,1-1.48-1.58A1.53,1.53,0,0,1,146.68,918.39Z"/><path class="cls-25" d="M152.1,919.93a1.54,1.54,0,1,1-1.48-1.59A1.53,1.53,0,0,1,152.1,919.93Z"/><path class="cls-25" d="M144.8,918.39a1.54,1.54,0,1,1-1.48-1.58A1.55,1.55,0,0,1,144.8,918.39Z"/><path class="cls-25" d="M136.49,916.73a1.54,1.54,0,1,1-1.48-1.58A1.53,1.53,0,0,1,136.49,916.73Z"/><path class="cls-25" d="M89.6,890a1.54,1.54,0,1,1-1.48-1.58A1.53,1.53,0,0,1,89.6,890Z"/><path class="cls-25" d="M45.83,915.2a1.53,1.53,0,1,1-1.48-1.59A1.53,1.53,0,0,1,45.83,915.2Z"/><path class="cls-25" d="M59.73,953.25a1.53,1.53,0,1,1-1.48-1.58A1.53,1.53,0,0,1,59.73,953.25Z"/><path class="cls-25" d="M77.61,1014.16a1.54,1.54,0,1,1-1.48-1.59A1.53,1.53,0,0,1,77.61,1014.16Z"/><path class="cls-25" d="M93.34,1014.16a1.54,1.54,0,1,1-1.48-1.59A1.53,1.53,0,0,1,93.34,1014.16Z"/><path class="cls-25" d="M118.41,1043.47a1.53,1.53,0,1,1-1.48-1.59A1.53,1.53,0,0,1,118.41,1043.47Z"/><path class="cls-25" d="M149.44,1015.69a1.54,1.54,0,1,1-1.49-1.58A1.53,1.53,0,0,1,149.44,1015.69Z"/><path class="cls-25" d="M37.86,1038.87a1.54,1.54,0,1,1-1.48-1.59A1.54,1.54,0,0,1,37.86,1038.87Z"/><path class="cls-25" d="M131.77,1075.88a1.53,1.53,0,1,1-1.48-1.58A1.52,1.52,0,0,1,131.77,1075.88Z"/><path class="cls-25" d="M154.36,1081.4a1.54,1.54,0,1,1-1.48-1.59A1.53,1.53,0,0,1,154.36,1081.4Z"/><path class="cls-25" d="M32.28,977.24a1.54,1.54,0,1,1-1.48-1.58A1.53,1.53,0,0,1,32.28,977.24Z"/><path class="cls-25" d="M133,974.35a1.54,1.54,0,1,1-1.48-1.59A1.53,1.53,0,0,1,133,974.35Z"/><path class="cls-25" d="M131.1,974.35a1.54,1.54,0,1,1-1.48-1.59A1.53,1.53,0,0,1,131.1,974.35Z"/><path class="cls-25" d="M125.65,974.35a1.54,1.54,0,1,1-1.48-1.59A1.53,1.53,0,0,1,125.65,974.35Z"/><circle class="cls-26" cx="138.62" cy="952.24" r="1.53"/><path class="cls-26" d="M141.69,1006.59a1.54,1.54,0,1,1-1.53-1.53A1.54,1.54,0,0,1,141.69,1006.59Z"/><circle class="cls-26" cx="19.48" cy="978.73" r="1.53"/><path class="cls-26" d="M104,966.26a1.54,1.54,0,1,1-1.53-1.53A1.54,1.54,0,0,1,104,966.26Z"/><path class="cls-26" d="M92.84,921.66a1.54,1.54,0,1,1-1.54-1.53A1.54,1.54,0,0,1,92.84,921.66Z"/><path class="cls-26" d="M150.57,975.83A1.54,1.54,0,1,1,149,974.3,1.54,1.54,0,0,1,150.57,975.83Z"/><path class="cls-26" d="M157.18,1028.73a1.54,1.54,0,1,1-1.53-1.53A1.53,1.53,0,0,1,157.18,1028.73Z"/><circle class="cls-26" cx="62.18" cy="952.71" r="1.53"/><circle class="cls-26" cx="74.54" cy="1014.11" r="1.53"/><path class="cls-26" d="M68.67,1041.88a1.54,1.54,0,1,1-1.53-1.53A1.54,1.54,0,0,1,68.67,1041.88Z"/><path class="cls-26" d="M127.19,1014.11a1.54,1.54,0,1,1-1.54-1.54A1.54,1.54,0,0,1,127.19,1014.11Z"/><path class="cls-26" d="M70.2,1014.65a1.53,1.53,0,1,1-1.53-1.53A1.53,1.53,0,0,1,70.2,1014.65Z"/><path class="cls-26" d="M116.75,1043.42a1.53,1.53,0,1,1-1.53-1.54A1.53,1.53,0,0,1,116.75,1043.42Z"/><path class="cls-26" d="M108.11,1043.42a1.53,1.53,0,1,1-1.53-1.54A1.53,1.53,0,0,1,108.11,1043.42Z"/><path class="cls-26" d="M125.65,1082.88a1.54,1.54,0,1,1-1.53-1.53A1.54,1.54,0,0,1,125.65,1082.88Z"/><path class="cls-26" d="M65.25,1075.93a1.54,1.54,0,1,1-1.54-1.54A1.53,1.53,0,0,1,65.25,1075.93Z"/><path class="cls-26" d="M27.68,1074.29a1.54,1.54,0,1,1-1.54-1.53A1.54,1.54,0,0,1,27.68,1074.29Z"/><path class="cls-26" d="M39.94,1090.59a1.54,1.54,0,1,1-1.54-1.54A1.53,1.53,0,0,1,39.94,1090.59Z"/><path class="cls-26" d="M19.48,1016.19a1.54,1.54,0,1,1-1.54-1.54A1.54,1.54,0,0,1,19.48,1016.19Z"/><path class="cls-26" d="M29.21,977.37a1.54,1.54,0,1,1-1.53-1.54A1.53,1.53,0,0,1,29.21,977.37Z"/><path class="cls-26" d="M26.14,921.66a1.53,1.53,0,1,1-1.53-1.53A1.53,1.53,0,0,1,26.14,921.66Z"/><polygon class="cls-158" points="52.87 883.69 46.98 1135.04 53.6 1134.23 55.13 883.03 52.87 883.69"/><polygon class="cls-159" points="95.76 878.78 96.88 1134.58 104.01 1135.85 96.89 878.85 95.76 878.78"/><polygon class="cls-160" points="134.95 888.1 141.69 1133.41 150.1 1134.67 137.09 889 134.95 888.1"/><polygon class="cls-161" points="608.28 920.01 609 833.46 612.68 843.78 618.76 938.74 608.28 920.01"/><polygon class="cls-162" points="609 833.46 604.61 834.51 600.21 925.68 608.28 925.68 609 833.46"/><polygon class="cls-163" points="631.94 1017.59 627.19 947.08 606.56 910.23 608.61 981.77 631.94 1017.59"/><polygon class="cls-164" points="606.56 910.23 588.05 912.66 586.17 980.74 608.61 981.77 606.56 910.23"/><polygon class="cls-165" points="572.68 1137.23 578.08 970.18 602.86 968.72 603.97 1138.82 572.68 1137.23"/><polygon class="cls-166" points="602.86 968.72 639.75 1030.71 644.42 1138.82 603.97 1138.82 602.86 968.72"/><path class="cls-25" d="M627.11,1024.71a1.54,1.54,0,1,1-1.48-1.58A1.53,1.53,0,0,1,627.11,1024.71Z"/><path class="cls-25" d="M613.6,871.64a1.53,1.53,0,1,1-1.48-1.59A1.52,1.52,0,0,1,613.6,871.64Z"/><path class="cls-25" d="M607.44,858.91a1.54,1.54,0,1,1-1.48-1.59A1.54,1.54,0,0,1,607.44,858.91Z"/><path class="cls-25" d="M606.14,892.56a1.54,1.54,0,1,1-1.48-1.59A1.53,1.53,0,0,1,606.14,892.56Z"/><path class="cls-25" d="M585.17,1002.06a1.54,1.54,0,1,1-1.48-1.58A1.53,1.53,0,0,1,585.17,1002.06Z"/><path class="cls-25" d="M610.14,1078a1.54,1.54,0,1,1-1.48-1.58A1.53,1.53,0,0,1,610.14,1078Z"/><path class="cls-25" d="M607.44,1050.32a1.54,1.54,0,1,1-1.48-1.59A1.53,1.53,0,0,1,607.44,1050.32Z"/><path class="cls-25" d="M625.17,1050.32a1.53,1.53,0,1,1-1.48-1.59A1.53,1.53,0,0,1,625.17,1050.32Z"/><path class="cls-25" d="M611.67,1078a1.53,1.53,0,1,1-1.48-1.58A1.53,1.53,0,0,1,611.67,1078Z"/><path class="cls-25" d="M581.46,1098.94a1.54,1.54,0,1,1-1.48-1.58A1.53,1.53,0,0,1,581.46,1098.94Z"/><path class="cls-25" d="M632.87,1079.27a1.54,1.54,0,1,1-1.48-1.59A1.53,1.53,0,0,1,632.87,1079.27Z"/><path class="cls-25" d="M639.63,1079.27a1.53,1.53,0,1,1-1.48-1.59A1.53,1.53,0,0,1,639.63,1079.27Z"/><path class="cls-25" d="M627.11,1122.89a1.54,1.54,0,1,1-1.48-1.58A1.53,1.53,0,0,1,627.11,1122.89Z"/><path class="cls-25" d="M629.32,1122.89a1.53,1.53,0,1,1-1.48-1.58A1.53,1.53,0,0,1,629.32,1122.89Z"/><path class="cls-25" d="M641.87,1122.89a1.54,1.54,0,1,1-1.48-1.58A1.53,1.53,0,0,1,641.87,1122.89Z"/><path class="cls-25" d="M609,1122.89a1.53,1.53,0,1,1-1.48-1.58A1.53,1.53,0,0,1,609,1122.89Z"/><path class="cls-25" d="M586.7,1078.3a1.54,1.54,0,1,1-1.48-1.58A1.53,1.53,0,0,1,586.7,1078.3Z"/><path class="cls-25" d="M635.93,1050.32a1.53,1.53,0,1,1-1.48-1.59A1.53,1.53,0,0,1,635.93,1050.32Z"/><path class="cls-26" d="M625.57,1024.71a1.53,1.53,0,1,1-1.48-1.58A1.52,1.52,0,0,1,625.57,1024.71Z"/><path class="cls-26" d="M612.07,862a1.54,1.54,0,1,1-1.48-1.58A1.53,1.53,0,0,1,612.07,862Z"/><path class="cls-26" d="M638.1,1050.32a1.54,1.54,0,1,1-1.48-1.59A1.53,1.53,0,0,1,638.1,1050.32Z"/><path class="cls-26" d="M591.47,1024.71a1.54,1.54,0,1,1-1.48-1.58A1.53,1.53,0,0,1,591.47,1024.71Z"/><path class="cls-26" d="M635.93,1103.35a1.53,1.53,0,1,1-1.48-1.58A1.53,1.53,0,0,1,635.93,1103.35Z"/><path class="cls-26" d="M634.4,1103.35a1.54,1.54,0,1,1-1.48-1.58A1.53,1.53,0,0,1,634.4,1103.35Z"/><path class="cls-26" d="M616.59,1103.35a1.54,1.54,0,1,1-1.48-1.58A1.53,1.53,0,0,1,616.59,1103.35Z"/><path class="cls-26" d="M610.54,1003.6a1.54,1.54,0,1,1-1.48-1.59A1.54,1.54,0,0,1,610.54,1003.6Z"/><path class="cls-26" d="M612.07,1003.6a1.54,1.54,0,1,1-1.48-1.59A1.54,1.54,0,0,1,612.07,1003.6Z"/><path class="cls-26" d="M601.34,1122.34a1.54,1.54,0,1,1-1.48-1.59A1.53,1.53,0,0,1,601.34,1122.34Z"/><path class="cls-26" d="M599.49,1122.34a1.53,1.53,0,1,1-1.48-1.59A1.53,1.53,0,0,1,599.49,1122.34Z"/><path class="cls-26" d="M579.93,1122.34a1.54,1.54,0,1,1-1.48-1.59A1.53,1.53,0,0,1,579.93,1122.34Z"/><path class="cls-26" d="M586.7,1024.71a1.54,1.54,0,1,1-1.48-1.58A1.53,1.53,0,0,1,586.7,1024.71Z"/><polygon class="cls-167" points="120.15 869.93 115.06 874.29 114 893.49 120.39 892.66 120.15 869.93"/><polygon class="cls-168" points="121.99 763.77 120.39 763.77 121.91 870.46 124.89 871.35 121.99 763.77"/><polygon class="cls-169" points="127.14 872.03 123.41 764.13 121.99 763.77 123.4 870.9 127.14 872.03"/><polygon class="cls-170" points="134.33 893.46 131.44 873.32 120.15 869.93 119.95 893.48 134.33 893.46"/><polygon class="cls-171" points="146.01 930.59 143.17 891.89 116.88 886.82 116.88 928.13 146.01 930.59"/><polygon class="cls-172" points="116.88 886.82 103.83 895.66 102.48 937.29 116.88 929.28 116.88 886.82"/><polygon class="cls-173" points="92.76 1138.17 120.41 1138.17 115.22 927.27 96.05 934.03 92.76 1138.17"/><polygon class="cls-174" points="115.22 927.27 150.93 931.24 168.79 1138.17 115.22 1138.17 115.22 927.27"/><polygon class="cls-175" points="131.44 1138.17 124.87 928.34 121.25 927.94 125.81 1138.17 131.44 1138.17"/><polygon class="cls-176" points="125.81 1138.17 121.25 927.94 123.43 928.18 130.05 1138.17 125.81 1138.17"/><polygon class="cls-177" points="120.01 887.42 120.41 927.94 121.75 928 120.88 887.59 120.01 887.42"/><polygon class="cls-178" points="120.88 887.59 121.35 887.68 122.4 928.07 121.75 928 120.88 887.59"/><path class="cls-25" d="M131.44,954.18a1.54,1.54,0,1,1-1.53-1.53A1.53,1.53,0,0,1,131.44,954.18Z"/><path class="cls-25" d="M144.8,1048.38a1.54,1.54,0,1,1-1.54-1.54A1.54,1.54,0,0,1,144.8,1048.38Z"/><path class="cls-25" d="M157.18,1048.38a1.54,1.54,0,1,1-1.53-1.54A1.53,1.53,0,0,1,157.18,1048.38Z"/><path class="cls-25" d="M103,1079.81a1.53,1.53,0,1,1-1.53-1.53A1.53,1.53,0,0,1,103,1079.81Z"/><circle class="cls-25" cx="144.47" cy="1072.76" r="1.53"/><circle class="cls-25" cx="151.29" cy="1072.76" r="1.53"/><circle class="cls-25" cx="152.83" cy="1072.76" r="1.53"/><path class="cls-25" d="M154.36,1093.51a1.54,1.54,0,1,1-1.53-1.53A1.54,1.54,0,0,1,154.36,1093.51Z"/><path class="cls-25" d="M160.28,1093.51a1.54,1.54,0,1,1-1.53-1.53A1.54,1.54,0,0,1,160.28,1093.51Z"/><path class="cls-25" d="M105.09,954.18a1.54,1.54,0,1,1-1.54-1.53A1.54,1.54,0,0,1,105.09,954.18Z"/><circle class="cls-25" cx="112.7" cy="990.49" r="1.53"/><circle class="cls-25" cx="145.15" cy="938.82" r="1.53"/><path class="cls-25" d="M131.1,913.61a1.54,1.54,0,1,1-1.54-1.53A1.54,1.54,0,0,1,131.1,913.61Z"/><path class="cls-26" d="M133,954.18a1.54,1.54,0,1,1-1.54-1.53A1.54,1.54,0,0,1,133,954.18Z"/><path class="cls-26" d="M104,954.18a1.54,1.54,0,1,1-1.53-1.53A1.54,1.54,0,0,1,104,954.18Z"/><path class="cls-26" d="M150.57,988.34a1.54,1.54,0,1,1-1.54-1.53A1.53,1.53,0,0,1,150.57,988.34Z"/><circle class="cls-26" cx="147.54" cy="988.34" r="1.53"/><path class="cls-26" d="M101.42,991.41a1.54,1.54,0,1,1-1.53-1.54A1.53,1.53,0,0,1,101.42,991.41Z"/><path class="cls-26" d="M134.51,954.18a1.54,1.54,0,1,1-1.53-1.53A1.54,1.54,0,0,1,134.51,954.18Z"/><path class="cls-26" d="M147.54,1023.5A1.54,1.54,0,1,1,146,1022,1.53,1.53,0,0,1,147.54,1023.5Z"/><path class="cls-26" d="M143.54,1048.38a1.54,1.54,0,1,1-1.54-1.54A1.54,1.54,0,0,1,143.54,1048.38Z"/><path class="cls-26" d="M149.44,1023.5a1.54,1.54,0,1,1-1.54-1.54A1.53,1.53,0,0,1,149.44,1023.5Z"/><circle class="cls-26" cx="134.95" cy="1095.05" r="1.53"/><path class="cls-26" d="M147.54,954.18a1.54,1.54,0,1,1-1.53-1.53A1.54,1.54,0,0,1,147.54,954.18Z"/></g></g></g></g></g></svg>